# Blender 5.1.0
# www.blender.org
mtllib candy.mtl
o VisualMaterial0
v 1.806789 4.891771 3.737171
v -1.264441 5.916922 3.620591
v 0.907142 2.899141 3.884041
v -0.433171 7.591442 2.477601
v 2.658449 1.669100 2.069460
v 2.226599 6.703641 2.578561
v 3.829019 3.471451 1.641880
v 3.977909 5.473611 0.763962
v -1.752621 3.786941 3.783091
v -2.443351 7.616952 0.520233
v -3.585601 5.946372 1.360430
v 0.779830 0.549510 1.932150
v 2.054079 7.849272 0.718628
v 0.518470 8.361842 0.660339
v -3.762811 3.812451 1.825720
v -0.231281 1.259670 2.979801
v -1.766901 1.772241 2.921511
v -0.642111 8.376572 -0.469727
v -2.626411 6.765222 -2.146940
v -0.747801 7.884822 -2.009640
v 3.065189 7.139102 -0.329010
v -2.927471 1.786970 1.791430
v -3.796991 4.962881 -1.719360
v -3.945871 2.960721 -0.841461
v -1.316791 0.374180 1.279940
v 1.299389 7.917612 -1.308530
v -3.033171 1.295220 0.251526
v -1.161121 4.223491 -0.564300
v -6.569381 2.995211 -5.418581
v -5.963490 5.057702 -6.216291
v -6.344591 1.315350 -3.418331
v -5.781741 8.259722 -5.207831
v -7.016781 1.887090 -1.639540
v -7.795251 3.967651 -2.205821
v -8.489601 5.318831 -0.369050
v -5.781741 8.259722 -5.207831
v -6.813910 9.245302 -2.966481
v -7.798501 7.985702 -0.753730
v -8.489601 5.318831 -0.369050
v 2.475379 0.817370 -0.597717
v 0.674140 0.057760 0.392242
v -0.486431 0.072490 -0.737823
v 2.658449 1.669100 2.069460
v 0.465194 0.842880 -2.555081
v 3.829019 3.471451 1.641880
v 3.617629 2.487961 -1.437920
v -1.316791 0.374180 1.279940
v 0.779830 0.549510 1.932150
v 1.296479 2.517411 -3.698091
v -2.022051 0.585060 -0.796112
v -2.194571 1.730680 -2.656031
v 3.977909 5.473611 0.763962
v -1.774761 3.542561 -3.814661
v 3.794839 4.621881 -1.903190
v 1.784649 4.647391 -3.860561
v -3.033171 1.295220 0.251526
v -0.875111 5.535192 -3.961511
v -3.945871 2.960721 -0.841461
v -3.796991 4.962881 -1.719360
v 3.065189 7.139102 -0.329010
v 2.959509 6.647351 -1.868920
v -2.626411 6.765222 -2.146940
v 1.798929 6.662081 -2.998991
v 0.263313 7.174652 -3.057281
v 1.299389 7.917612 -1.308530
v -0.747801 7.884822 -2.009640
v -3.808211 4.691031 -1.804590
v -5.670081 8.005422 -4.970111
v -5.838421 5.039502 -5.904212
v -6.626141 8.918322 -2.894031
v -7.538131 7.751602 -0.844440
v -8.178270 5.281382 -0.488125
v -7.535121 4.029831 -2.189461
v -6.814051 2.102680 -1.664930
v 4.403919 3.365431 1.396510
v 5.988659 1.072960 5.171361
v 5.525939 -0.004730 4.711811
v 6.565809 2.204310 3.425711
v 6.412759 4.915891 4.489401
v 6.574049 6.198711 3.007731
v 7.951729 4.997201 0.887296
v 1.382909 3.734521 0.538655
v 8.094110 5.108952 0.809656
v 8.992389 2.366821 -0.047760
v 6.638659 6.371242 3.078311
v 7.773409 1.364890 2.273261
v 6.434129 -0.590760 2.691091
v 5.562959 -0.155350 4.860811
v 4.403919 3.365431 1.396510
v 8.806129 2.407681 0.016851
v 7.951729 4.997201 0.887296
v 7.640199 1.449350 2.236871
v 6.254499 -0.395864 2.660321
v 5.525939 -0.004730 4.711811
v 1.382909 3.734521 0.538655
v 5.562959 -0.155350 4.860811
v 6.042359 1.031550 5.347461
v 6.623109 2.187001 3.579471
v 6.470289 4.995541 4.650861
v 6.638659 6.371242 3.078311
v -3.808211 4.691031 -1.804590
v -5.838421 5.039502 -5.904212
v -6.399641 3.129091 -5.165321
v -6.191431 1.573100 -3.312561
v -6.814051 2.102680 -1.664930
vn 0.5046 0.1708 0.8463
vn -0.3032 0.4043 0.8629
vn 0.2097 -0.3185 0.9244
vn -0.1011 0.8005 0.5907
vn 0.6213 -0.6057 0.4971
vn 0.5215 0.5916 0.6149
vn 0.9007 -0.1786 0.3960
vn 0.9161 0.2873 0.2795
vn -0.4195 -0.1087 0.9012
vn -0.5799 0.8040 0.1314
vn -0.8497 0.4094 0.3321
vn 0.1856 -0.8662 0.4640
vn 0.4731 0.8686 0.1474
vn 0.1314 0.9815 0.1391
vn -0.8914 -0.1007 0.4418
vn -0.0543 -0.6983 0.7138
vn -0.4182 -0.5731 0.7048
vn -0.1242 0.9854 -0.1164
vn -0.6213 0.6058 -0.4970
vn -0.1474 0.8768 -0.4577
vn 0.7006 0.7084 -0.0856
vn -0.6962 -0.5724 0.4332
vn -0.9007 0.1786 -0.3960
vn -0.9353 -0.3015 -0.1855
vn -0.3099 -0.8988 0.3100
vn 0.3099 0.8988 -0.3099
vn -0.7207 -0.6897 0.0698
vn 0.8588 -0.2166 0.4643
vn 0.6369 -0.5049 -0.5826
vn 0.7444 -0.1473 -0.6513
vn 0.5270 -0.8448 -0.0930
vn 0.7913 0.4965 -0.3569
vn 0.0233 -0.4656 0.8847
vn -0.2090 -0.3871 0.8980
vn -0.0388 -0.4029 0.9144
vn 0.8588 -0.2166 0.4642
vn 0.7913 0.4965 -0.3568
vn 0.5584 0.7755 0.2947
vn 0.2410 0.4587 0.8553
vn -0.0388 -0.4030 0.9144
vn 0.5799 -0.8040 -0.1314
vn 0.1623 -0.9816 0.1005
vn -0.1165 -0.9784 -0.1708
vn 0.6213 -0.6058 0.4970
vn 0.1010 -0.8005 -0.5907
vn 0.8497 -0.4094 -0.3321
vn -0.3099 -0.8988 0.3099
vn 0.3032 -0.4043 -0.8629
vn -0.4824 -0.8558 -0.1868
vn -0.5215 -0.5915 -0.6149
vn 0.9162 0.2872 0.2795
vn -0.4257 -0.1625 -0.8902
vn 0.8914 0.1007 -0.4418
vn 0.4195 0.1087 -0.9012
vn -0.7207 -0.6897 0.0697
vn -0.2097 0.3185 -0.9244
vn 0.7006 0.7084 -0.0857
vn 0.6768 0.5990 -0.4279
vn -0.6213 0.6057 -0.4971
vn 0.4173 0.6028 -0.6801
vn 0.0779 0.7165 -0.6932
vn 0.3100 0.8988 -0.3100
vn -0.1474 0.8768 -0.4578
vn -0.8846 0.1474 -0.4423
vn -0.9192 -0.3553 0.1699
vn -0.8777 0.1631 0.4505
vn -0.7280 -0.5809 -0.3640
vn -0.4807 -0.3257 -0.8141
vn -0.2100 0.4121 -0.8866
vn 0.0388 0.3415 -0.9391
vn -0.2952 0.2952 -0.9087
vn 0.9473 -0.1242 0.2951
vn 0.5384 -0.6009 -0.5908
vn 0.9727 0.1790 -0.1478
vn 0.5201 -0.3727 -0.7685
vn 0.8565 -0.1012 -0.5061
vn 0.7240 -0.6617 0.1946
vn 0.3329 -0.4646 0.8206
vn -0.9761 0.1240 -0.1782
vn -0.0856 0.5916 -0.8017
vn -0.1393 -0.3638 -0.9210
vn -0.4345 0.9001 -0.0310
vn -0.0232 -0.6339 -0.7731
vn -0.3037 -0.6853 -0.6619
vn -0.8066 -0.4653 0.3645
vn 0.9473 -0.1243 0.2951
vn 0.3488 0.3333 0.8759
vn 0.3329 -0.4645 0.8206
vn 0.1399 0.5828 0.8005
vn 0.4823 0.4823 0.7312
vn 0.9727 0.1790 -0.1479
vn -0.9762 0.1240 -0.1781
vn -0.8066 -0.4654 0.3645
vn -0.4588 0.5053 0.7309
vn -0.3954 0.3411 0.8528
vn -0.6463 0.1869 0.7398
vn -0.4346 0.9001 -0.0311
vn -0.8846 0.1474 -0.4424
vn -0.8777 0.1632 0.4505
vn -0.8058 0.4029 0.4339
vn -0.7943 0.6074 -0.0078
vn -0.2951 0.2951 -0.9088
vt 0.722374 0.339217
vt 0.505468 0.433144
vt 0.760586 0.503455
vt 0.442407 0.282163
vt 0.930912 0.478647
vt 0.627263 0.200819
vt 0.898854 0.272183
vt 0.725977 0.109476
vt 0.575730 0.584798
vt 0.258112 0.364782
vt 0.294393 0.528544
vt 0.834711 0.673549
vt 0.500738 0.125347
vt 0.394012 0.172311
vt 0.391435 0.667417
vt 0.732766 0.649526
vt 0.624935 0.696490
vt 0.287609 0.220010
vt 0.110291 0.392334
vt 0.185341 0.197433
vt 0.553019 0.034125
vt 0.518533 0.744190
vt 0.142349 0.598799
vt 0.272927 0.761505
vt 0.644699 0.741352
vt 0.380350 0.141298
vt 0.467034 0.836856
vt 0.438712 1.252702
vt 0.931576 1.212230
vt 0.960014 1.257820
vt 0.911618 1.180237
vt 0.999440 1.321021
vt 0.920212 1.194014
vt 0.946251 1.235757
vt 0.965508 1.266626
vt 0.999440 1.252702
vt 1.013500 1.252702
vt 0.965508 1.252702
vt 0.772951 0.064882
vt 0.743758 0.067277
vt 0.630606 0.068047
vt 0.930912 0.064444
vt 0.578973 0.066215
vt 0.898854 0.061218
vt 0.732853 0.062189
vt 0.651345 0.068782
vt 0.834711 0.067490
vt 0.505243 0.063729
vt 0.518953 0.068829
vt 0.385583 0.067570
vt 0.725977 0.058676
vt 0.283752 0.065293
vt 0.633048 0.059920
vt 0.439070 0.061253
vt 0.467034 0.070041
vt 0.245680 0.062608
vt 0.272927 0.068864
vt 0.142349 0.066322
vt 0.553019 0.057499
vt 0.500280 0.058682
vt 0.110291 0.063096
vt 0.388286 0.059452
vt 0.276633 0.060234
vt 0.373950 0.058944
vt 0.185341 0.060050
vt 0.418498 0.998049
vt 0.999640 1.138985
vt 0.960214 0.999072
vt 1.013700 1.133817
vt 0.999640 1.033562
vt 0.965708 0.914572
vt 0.946451 0.874641
vt 0.920412 0.857819
vt 1.570030 1.003283
vt 1.019540 1.137728
vt 1.004410 1.196791
vt 1.038300 1.064522
vt 1.079160 0.934238
vt 1.092250 0.857276
vt 1.079370 0.933412
vt 1.553570 0.750664
vt 1.071240 0.666863
vt 1.033240 0.636015
vt 1.088030 0.814531
vt 1.019350 0.617245
vt 0.989218 0.664221
vt 0.996280 0.703627
vt 1.570030 1.147576
vt 1.041370 1.147576
vt 1.079370 1.147576
vt 1.027480 1.147576
vt 0.997350 1.147576
vt 1.004410 1.147576
vt 1.553570 1.247456
vt 0.996280 1.247456
vt 1.011410 1.247456
vt 1.030160 1.247456
vt 1.071030 1.247456
vt 1.090750 1.247456
vt 0.441945 1.123925
vt 0.960214 1.123925
vt 0.931776 1.123925
vt 0.911818 1.123925
vt 0.920412 1.123925
s 1
usemtl Mdl_39_Mtl_m_fg_candy
f 1/1/1 2/2/2 3/3/3
f 1/1/1 4/4/4 2/2/2
f 1/1/1 3/3/3 5/5/5
f 1/1/1 6/6/6 4/4/4
f 1/1/1 5/5/5 7/7/7
f 1/1/1 7/7/7 8/8/8
f 1/1/1 8/8/8 6/6/6
f 2/2/2 9/9/9 3/3/3
f 2/2/2 4/4/4 10/10/10
f 2/2/2 10/10/10 11/11/11
f 2/2/2 11/11/11 9/9/9
f 5/5/5 3/3/3 12/12/12
f 6/6/6 8/8/8 13/13/13
f 6/6/6 13/13/13 14/14/14
f 6/6/6 14/14/14 4/4/4
f 9/9/9 11/11/11 15/15/15
f 3/3/3 16/16/16 12/12/12
f 9/9/9 16/16/16 3/3/3
f 9/9/9 17/17/17 16/16/16
f 9/9/9 15/15/15 17/17/17
f 10/10/10 4/4/4 18/18/18
f 4/4/4 14/14/14 18/18/18
f 10/10/10 19/19/19 11/11/11
f 10/10/10 20/20/20 19/19/19
f 10/10/10 18/18/18 20/20/20
f 8/8/8 21/21/21 13/13/13
f 15/15/15 22/22/22 17/17/17
f 23/23/23 11/11/11 19/19/19
f 15/15/15 11/11/11 23/23/23
f 15/15/15 23/23/23 24/24/24
f 15/15/15 24/24/24 22/22/22
f 16/16/16 17/17/17 25/25/25
f 17/17/17 22/22/22 25/25/25
f 16/16/16 25/25/25 12/12/12
f 20/20/20 18/18/18 26/26/26
f 26/26/26 18/18/18 14/14/14
f 26/26/26 13/13/13 21/21/21
f 26/26/26 14/14/14 13/13/13
f 22/22/22 27/27/27 25/25/25
f 24/24/24 27/27/27 22/22/22
f 28/28/28 29/29/29 30/30/30
f 28/28/28 31/31/31 29/29/29
f 28/28/28 30/30/30 32/32/32
f 28/28/28 33/33/33 31/31/31
f 28/28/28 34/34/34 33/33/33
f 28/28/28 35/35/35 34/34/34
f 28/28/36 36/36/37 37/37/38
f 28/28/36 37/37/38 38/36/39
f 28/28/36 38/36/39 39/38/40
f 40/39/41 41/40/42 42/41/43
f 40/39/41 43/42/44 41/40/42
f 40/39/41 42/41/43 44/43/45
f 40/39/41 45/44/7 43/42/44
f 40/39/41 46/45/46 45/44/7
f 40/39/41 44/43/45 46/45/46
f 41/40/42 47/46/47 42/41/43
f 41/40/42 48/47/12 47/46/47
f 41/40/42 43/42/44 48/47/12
f 44/43/45 49/48/48 46/45/46
f 42/41/43 47/46/47 50/49/49
f 44/43/45 42/41/43 50/49/49
f 44/43/45 50/49/49 51/50/50
f 44/43/45 51/50/50 49/48/48
f 45/44/7 46/45/46 52/51/51
f 49/48/48 51/50/50 53/52/52
f 46/45/46 54/53/53 52/51/51
f 49/48/48 54/53/53 46/45/46
f 49/48/48 55/54/54 54/53/53
f 49/48/48 53/52/52 55/54/54
f 50/49/49 56/55/55 51/50/50
f 47/46/47 56/55/55 50/49/49
f 53/52/52 57/56/56 55/54/54
f 58/57/24 51/50/50 56/55/55
f 53/52/52 51/50/50 58/57/24
f 53/52/52 58/57/24 59/58/23
f 53/52/52 59/58/23 57/56/56
f 54/53/53 60/59/57 52/51/51
f 54/53/53 61/60/58 60/59/57
f 54/53/53 55/54/54 61/60/58
f 57/56/56 59/58/23 62/61/59
f 55/54/54 63/62/60 61/60/58
f 57/56/56 63/62/60 55/54/54
f 57/56/56 64/63/61 63/62/60
f 57/56/56 62/61/59 64/63/61
f 63/62/60 64/63/61 65/64/62
f 63/62/60 65/64/62 61/60/58
f 60/59/57 61/60/58 65/64/62
f 62/61/59 66/65/63 64/63/61
f 64/63/61 66/65/63 65/64/62
f 67/66/64 68/67/65 69/68/66
f 67/66/64 70/69/67 68/67/65
f 67/66/64 71/70/68 70/69/67
f 67/66/64 72/71/69 71/70/68
f 67/66/64 73/72/70 72/71/69
f 67/66/64 74/73/71 73/72/70
f 75/74/72 76/75/73 77/76/74
f 75/74/72 78/77/75 76/75/73
f 75/74/72 79/78/76 78/77/75
f 75/74/72 80/79/77 79/78/76
f 75/74/72 81/80/78 80/79/77
f 82/81/79 83/82/80 84/83/81
f 82/81/79 85/84/82 83/82/80
f 82/81/79 84/83/81 86/85/83
f 82/81/79 86/85/83 87/86/84
f 82/81/79 87/86/84 88/87/85
f 89/88/86 90/89/87 91/90/88
f 89/88/86 92/91/89 90/89/87
f 89/88/86 93/92/90 92/91/89
f 89/88/86 94/93/91 93/92/90
f 95/94/92 96/95/93 97/96/94
f 95/94/92 97/96/94 98/97/95
f 95/94/92 98/97/95 99/98/96
f 95/94/92 99/98/96 100/99/97
f 101/100/98 102/101/99 103/102/100
f 101/100/98 103/102/100 104/103/101
f 101/100/98 104/103/101 105/104/102
