# Blender 5.1.0
# www.blender.org
mtllib rock.mtl
o lp2_Material_0
v 0.054227 0.326786 -0.186386
v 0.128208 0.336003 -0.194233
v 0.073695 0.328975 -0.220230
v 0.128208 0.336003 -0.194233
v 0.142286 0.309319 -0.207777
v 0.073695 0.328975 -0.220230
v 0.073695 0.328975 -0.220230
v 0.037809 0.223152 -0.251717
v 0.054227 0.326786 -0.186386
v 0.154967 0.000810 -0.140133
v 0.187089 0.000810 -0.150960
v 0.174021 0.153419 -0.140847
v 0.163936 0.128857 0.167327
v 0.158613 0.148304 0.074226
v 0.031925 0.133912 0.127959
v -0.007107 0.000810 0.215339
v 0.006197 0.128900 0.207080
v -0.016307 0.130791 0.245698
v -0.016475 0.270214 0.272313
v 0.031925 0.133912 0.127959
v 0.043030 0.257393 0.127287
v -0.011758 0.374666 0.258525
v 0.029688 0.375452 0.130997
v -0.023145 0.394931 0.250105
v 0.148095 0.288057 -0.165385
v 0.054445 0.302667 -0.165727
v 0.174021 0.153419 -0.140847
v 0.174021 0.153419 -0.140847
v 0.054445 0.302667 -0.165727
v 0.164968 0.289177 -0.138247
v -0.152141 0.404303 0.088396
v -0.150834 0.407050 0.020937
v -0.165775 0.287545 0.040067
v -0.061473 0.483281 -0.165816
v -0.066723 0.292844 -0.195138
v 0.018933 0.082911 -0.248194
v 0.197612 0.000810 -0.235937
v 0.025029 0.000810 -0.238859
v -0.066723 0.292844 -0.195138
v 0.029305 0.203073 -0.181065
v -0.139310 0.515500 0.077938
v -0.076604 0.525472 0.123590
v -0.123151 0.540501 0.007793
v 0.136625 0.495347 0.070125
v 0.139940 0.548546 -0.007303
v 0.119606 0.535847 0.063146
v 0.088970 0.128966 0.230096
v 0.120198 0.105404 0.252052
v 0.132194 0.128949 0.217747
v 0.148095 0.288057 -0.165385
v 0.142286 0.309319 -0.207777
v 0.128208 0.336003 -0.194233
v -0.113503 0.385602 0.155825
v -0.116061 0.382629 0.117990
v -0.140698 0.286287 0.096072
v -0.075342 0.395493 0.161823
v -0.067020 0.467526 0.158406
v -0.104161 0.396354 0.128613
v 0.154967 0.000810 -0.140133
v 0.174021 0.153419 -0.140847
v 0.158613 0.148304 0.074226
v 0.153909 0.000810 0.079634
v 0.164968 0.289177 -0.138247
v 0.155841 0.286041 0.068163
v 0.174021 0.153419 -0.140847
v 0.171457 0.144736 -0.239610
v 0.037809 0.223152 -0.251717
v 0.171457 0.144736 -0.239610
v 0.197612 0.000810 -0.235937
v 0.187089 0.000810 -0.150960
v 0.158998 0.000810 0.197648
v 0.163936 0.128857 0.167327
v -0.007107 0.000810 0.215339
v -0.016307 0.130791 0.245698
v -0.104426 0.129502 0.268431
v -0.105031 0.000810 0.249517
v -0.016475 0.270214 0.272313
v -0.099300 0.263078 0.271989
v -0.011758 0.374666 0.258525
v -0.081862 0.372323 0.260553
v 0.149412 0.511349 -0.120955
v 0.133463 0.560560 -0.090723
v 0.155841 0.286041 0.068163
v 0.043030 0.257393 0.127287
v 0.031925 0.133912 0.127959
v 0.158613 0.148304 0.074226
v 0.154707 0.373296 0.062610
v 0.029688 0.375452 0.130997
v 0.161678 0.398959 -0.127613
v 0.154707 0.373296 0.062610
v 0.119606 0.535847 0.063146
v 0.002700 0.518854 0.137078
v 0.003769 0.485451 0.142810
v 0.136625 0.495347 0.070125
v -0.076604 0.525472 0.123590
v -0.067020 0.467526 0.158406
v 0.133463 0.560560 -0.090723
v 0.149412 0.511349 -0.120955
v 0.087081 0.553668 -0.131947
v 0.076288 0.567908 -0.113936
v -0.075342 0.395493 0.161823
v -0.023145 0.394931 0.250105
v -0.079103 0.397467 0.234678
v -0.105031 0.000810 0.249517
v -0.104426 0.129502 0.268431
v -0.140715 0.138969 0.096106
v -0.137671 0.005409 0.097814
v -0.099300 0.263078 0.271989
v 0.054227 0.326786 -0.186386
v 0.128208 0.336003 -0.194233
v -0.176615 0.000810 0.036729
v -0.184180 0.138862 0.033345
v -0.067611 0.086713 -0.197540
v -0.065502 0.000810 -0.194273
v -0.081862 0.372323 0.260553
v -0.139310 0.515500 0.077938
v -0.123151 0.540501 0.007793
v -0.034914 0.531930 -0.154278
v -0.040740 0.559335 -0.114657
v -0.061473 0.483281 -0.165816
v -0.078235 0.549659 -0.097536
v -0.040740 0.559335 -0.114657
v -0.034914 0.531930 -0.154278
v -0.078235 0.549659 -0.097536
v -0.076604 0.525472 0.123590
v -0.139310 0.515500 0.077938
v -0.152141 0.404303 0.088396
v 0.029305 0.203073 -0.181065
v 0.054445 0.302667 -0.165727
v 0.018933 0.082911 -0.248194
v -0.006039 0.087161 -0.191413
v -0.018191 0.078253 -0.294405
v 0.018933 0.082911 -0.248194
v 0.025029 0.000810 -0.238859
v -0.031465 0.000810 -0.312475
v -0.018191 0.078253 -0.294405
v -0.031465 0.000810 -0.312475
v -0.073770 0.000810 -0.275312
v -0.075948 0.082889 -0.263392
v -0.092500 0.000810 -0.213873
v -0.089222 0.081620 -0.213250
v -0.075948 0.082889 -0.263392
v -0.073770 0.000810 -0.275312
v -0.065502 0.000810 -0.194273
v -0.067611 0.086713 -0.197540
v -0.089222 0.081620 -0.213250
v -0.092500 0.000810 -0.213873
v -0.067611 0.086713 -0.197540
v -0.006039 0.087161 -0.191413
v 0.052254 0.410808 -0.162900
v 0.161678 0.398959 -0.127613
v -0.061473 0.483281 -0.165816
v 0.018933 0.082911 -0.248194
v -0.018191 0.078253 -0.294405
v -0.075948 0.082889 -0.263392
v -0.006039 0.087161 -0.191413
v -0.089222 0.081620 -0.213250
v -0.067611 0.086713 -0.197540
v -0.023145 0.394931 0.250105
v 0.029688 0.375452 0.130997
v -0.075342 0.395493 0.161823
v -0.079103 0.397467 0.234678
v 0.002700 0.518854 0.137078
v 0.076288 0.567908 -0.113936
v -0.040740 0.559335 -0.114657
v -0.078235 0.549659 -0.097536
v -0.184180 0.138862 0.033345
v -0.176615 0.000810 0.036729
v -0.165775 0.287545 0.040067
v -0.152141 0.404303 0.088396
v -0.104161 0.396354 0.128613
v -0.100486 0.398381 0.171623
v -0.079103 0.397467 0.234678
v -0.100486 0.398381 0.171623
v -0.104161 0.396354 0.128613
v -0.116061 0.382629 0.117990
v 0.006197 0.128900 0.207080
v -0.007107 0.000810 0.215339
v 0.118546 0.000810 0.263437
v 0.120198 0.105404 0.252052
v 0.088970 0.128966 0.230096
v 0.158998 0.000810 0.197648
v 0.163936 0.128857 0.167327
v 0.132194 0.128949 0.217747
v 0.120198 0.105404 0.252052
v 0.118546 0.000810 0.263437
v 0.133463 0.560560 -0.090723
v 0.119606 0.535847 0.063146
v 0.139940 0.548546 -0.007303
v 0.006197 0.128900 0.207080
v 0.088970 0.128966 0.230096
v 0.132194 0.128949 0.217747
vn -0.1244 0.9922 -0.0074
vn 0.2996 0.5528 -0.7776
vn 0.2512 0.3345 -0.9083
vn 0.2413 0.2950 -0.9245
vn -0.8044 0.4027 -0.4367
vn -0.9627 0.2282 -0.1456
vn -0.9260 0.3086 -0.2175
vn 0.3192 -0.0354 0.9470
vn -0.0065 0.9928 0.1200
vn -0.0239 0.9783 0.2057
vn -0.0004 0.9959 0.0900
vn 0.8614 -0.0569 0.5048
vn 0.8967 -0.0650 0.4378
vn 0.8596 -0.0791 0.5048
vn 0.9269 0.0081 0.3752
vn 0.9492 -0.0837 0.3033
vn 0.9365 -0.0009 0.3506
vn 0.9039 0.2856 0.3184
vn 0.9344 0.1045 0.3406
vn 0.7914 0.5530 0.2606
vn 0.0368 0.3338 0.9419
vn 0.0468 0.4649 0.8841
vn 0.0251 0.1839 0.9826
vn 0.2451 0.0349 -0.9689
vn 0.2276 0.0793 -0.9705
vn 0.2614 0.0491 -0.9640
vn -0.9886 0.1392 -0.0573
vn -0.9663 0.1188 -0.2283
vn -0.9345 0.0678 -0.3493
vn -0.9135 0.1173 -0.3895
vn -0.9093 0.0677 -0.4107
vn 0.0480 -0.0556 -0.9973
vn 0.0506 -0.0510 -0.9974
vn 0.0168 -0.1117 -0.9936
vn 0.1744 0.0792 -0.9815
vn 0.1713 0.0475 -0.9841
vn -0.3267 0.9116 0.2496
vn -0.0988 0.9799 0.1731
vn -0.1208 0.9828 0.1397
vn 0.9664 0.2166 0.1384
vn 0.9797 0.1832 0.0813
vn 0.8523 0.4134 0.3205
vn 0.1710 0.7834 0.5975
vn 0.9718 0.2354 -0.0146
vn 0.9460 0.3226 0.0329
vn 0.8992 0.4280 0.0914
vn -0.8961 0.4193 0.1458
vn -0.9355 0.2434 0.2560
vn -0.9151 0.0396 0.4012
vn -0.7485 0.1174 0.6526
vn -0.6805 0.1527 0.7167
vn -0.6721 0.0349 0.7397
vn 0.9963 -0.0781 0.0368
vn 0.9987 -0.0164 0.0481
vn 0.9995 -0.0263 0.0175
vn 0.9982 -0.0596 -0.0092
vn 0.9982 0.0330 0.0507
vn 0.9982 0.0331 0.0509
vn 0.9876 0.1568 -0.0034
vn 0.9882 0.1534 0.0017
vn 0.1600 0.1216 -0.9796
vn 0.1106 0.0450 -0.9929
vn 0.9908 0.1302 0.0368
vn 0.9977 -0.0418 -0.0530
vn 0.9977 -0.0418 -0.0531
vn 0.2893 -0.1698 0.9420
vn 0.2162 -0.1424 0.9659
vn 0.2134 -0.1413 0.9667
vn 0.0654 0.0105 0.9978
vn 0.0778 -0.0112 0.9969
vn -0.0355 0.3326 0.9424
vn -0.0373 0.3420 0.9390
vn 0.9900 0.1304 0.0533
vn 0.9896 0.1391 0.0369
vn 0.4501 0.0277 0.8926
vn 0.4442 0.0235 0.8956
vn 0.4248 0.0098 0.9052
vn 0.4737 0.0300 0.8801
vn 0.4204 0.0157 0.9072
vn 0.9958 0.0746 0.0539
vn 0.9962 0.0687 0.0526
vn 0.4679 0.2598 0.8447
vn 0.2361 0.3423 0.9094
vn 0.2864 0.1845 0.9402
vn 0.4778 0.1280 0.8691
vn -0.0176 0.4040 0.9146
vn 0.1456 0.1626 0.9759
vn 0.4465 0.6532 -0.6116
vn 0.3528 0.2838 -0.8916
vn 0.2615 0.5226 -0.8115
vn 0.1633 0.7665 -0.6212
vn 0.2550 -0.0199 0.9667
vn -0.0844 0.5902 0.8028
vn -0.0845 0.5903 0.8028
vn -0.9781 -0.0227 0.2071
vn -0.9770 -0.0033 0.2132
vn -0.9262 0.0036 0.3770
vn -0.9217 -0.0228 0.3873
vn -0.9677 0.0729 0.2412
vn 0.0550 0.5758 0.8158
vn -0.8980 -0.0518 -0.4368
vn -0.9026 0.0110 -0.4303
vn -0.9019 -0.0028 -0.4319
vn -0.8981 -0.0518 -0.4368
vn -0.9315 0.2311 0.2808
vn -0.9836 0.1538 -0.0938
vn -0.9498 0.1552 -0.2718
vn 0.0741 0.4496 -0.8902
vn -0.0447 0.8036 -0.5935
vn -0.5639 0.5613 -0.6058
vn -0.5638 0.5613 -0.6059
vn -0.5639 0.5612 -0.6058
vn -0.9141 0.1535 -0.3753
vn -0.6641 0.2052 0.7189
vn -0.6569 0.1096 0.7460
vn -0.9711 0.2046 -0.1226
vn -0.9802 0.1977 0.0068
vn -0.9521 0.2075 -0.2244
vn 0.7881 -0.0017 -0.6156
vn 0.7880 -0.0018 -0.6156
vn -0.5466 0.1913 -0.8153
vn -0.5466 0.1913 -0.8152
vn -0.9610 0.0277 -0.2753
vn -0.5887 0.0170 0.8081
vn -0.5888 0.0169 0.8081
vn 0.1401 0.0234 -0.9899
vn 0.2152 0.1112 -0.9702
vn 0.2859 0.0880 -0.9542
vn 0.1497 0.1450 -0.9780
vn 0.0138 0.9960 -0.0878
vn -0.0158 0.9973 -0.0716
vn -0.0111 0.9972 -0.0742
vn -0.0530 0.9973 -0.0512
vn 0.1318 0.9887 -0.0716
vn 0.1147 0.9921 -0.0509
vn 0.1264 0.9898 -0.0651
vn -0.0176 0.9858 0.1668
vn -0.0145 0.9853 0.1701
vn -0.0373 0.9890 0.1431
vn -0.0648 0.9919 0.1090
vn -0.8491 0.0096 0.5282
vn -0.8319 -0.0221 0.5544
vn -0.8470 0.0070 0.5316
vn -0.8182 -0.0421 0.5733
vn 0.1006 0.9943 -0.0342
vn 0.1009 0.9943 -0.0343
vn -0.8480 0.4337 0.3047
vn -0.8333 0.4981 0.2397
vn -0.7359 0.6770 0.0149
vn -0.6418 0.0057 0.7668
vn -0.3451 0.1285 0.9297
vn -0.3451 0.1286 0.9297
vn 0.8641 0.0828 0.4965
vn 0.8641 0.0827 0.4965
vn 0.8641 0.0827 0.4966
vn 0.8640 0.0828 0.4966
vn -0.0082 0.9842 0.1770
vn -0.0083 0.9842 0.1770
vn 0.0100 0.9992 0.0383
vn 0.0099 0.9992 0.0384
vn 0.0099 0.9992 0.0383
vt 0.850849 0.091150
vt 0.850849 0.031713
vt 0.825693 0.072900
vt 0.956899 0.520862
vt 0.961091 0.494966
vt 0.908560 0.518642
vt 0.715001 0.094646
vt 0.702423 0.186145
vt 0.746076 0.098099
vt 0.944117 0.218448
vt 0.970862 0.221166
vt 0.970862 0.099201
vt 0.609154 0.271478
vt 0.679936 0.297867
vt 0.679936 0.188118
vt 0.760337 0.988757
vt 0.777601 0.887886
vt 0.742333 0.883940
vt 0.730988 0.771725
vt 0.843943 0.888873
vt 0.854548 0.790962
vt 0.748252 0.689844
vt 0.854548 0.696503
vt 0.752938 0.670854
vt 0.078326 0.167648
vt 0.011243 0.133120
vt 0.063528 0.277151
vt 0.011243 0.639983
vt 0.110881 0.522835
vt 0.019628 0.531713
vt 0.708502 0.642245
vt 0.655230 0.648165
vt 0.684332 0.740403
vt 0.486044 0.604265
vt 0.482098 0.757667
vt 0.830872 0.330465
vt 0.961091 0.243652
vt 0.825693 0.264862
vt 0.210765 0.531713
vt 0.132337 0.603235
vt 0.234977 0.331655
vt 0.294168 0.350152
vt 0.233251 0.271231
vt 0.065501 0.890353
vt 0.022835 0.829189
vt 0.030233 0.887886
vt 0.903577 0.091150
vt 0.903577 0.055570
vt 0.873335 0.072064
vt 0.532903 0.258160
vt 0.498129 0.273205
vt 0.507501 0.297867
vt 0.340534 0.387929
vt 0.311432 0.388423
vt 0.289482 0.466850
vt 0.102292 0.041825
vt 0.100812 0.099536
vt 0.137313 0.042072
vt 0.459365 0.720426
vt 0.337038 0.719440
vt 0.342217 0.890846
vt 0.459612 0.895038
vt 0.229015 0.722646
vt 0.232715 0.886900
vt 0.560032 0.150877
vt 0.482098 0.139039
vt 0.863180 0.438241
vt 0.958625 0.359814
vt 0.492210 0.023124
vt 0.560032 0.029043
vt 0.459612 0.988757
vt 0.357755 0.964834
vt 0.877035 0.659756
vt 0.886900 0.765559
vt 0.959162 0.766792
vt 0.959162 0.663455
vt 0.886900 0.878268
vt 0.952503 0.872842
vt 0.882707 0.962121
vt 0.938445 0.960148
vt 0.052183 0.738430
vt 0.011243 0.762846
vt 0.601959 0.518889
vt 0.580256 0.417278
vt 0.482098 0.407906
vt 0.492210 0.517409
vt 0.671508 0.520862
vt 0.674221 0.407413
vt 0.141709 0.732018
vt 0.163412 0.882954
vt 0.803207 0.497185
vt 0.788409 0.387436
vt 0.761773 0.386450
vt 0.768926 0.506311
vt 0.803207 0.325286
vt 0.749195 0.328986
vt 0.039605 0.306049
vt 0.032453 0.353895
vt 0.083752 0.325040
vt 0.088684 0.306049
vt 0.691978 0.320354
vt 0.891832 0.979632
vt 0.936965 0.988757
vt 0.423647 0.690048
vt 0.434499 0.587451
vt 0.294168 0.584738
vt 0.300334 0.691034
vt 0.434499 0.481155
vt 0.019875 0.109444
vt 0.078326 0.120296
vt 0.708502 0.968287
vt 0.697650 0.858784
vt 0.497389 0.920934
vt 0.505774 0.988757
vt 0.426114 0.393109
vt 0.686552 0.555679
vt 0.627115 0.543348
vt 0.180183 0.337617
vt 0.180430 0.299637
vt 0.948846 0.635543
vt 0.948846 0.558596
vt 0.916292 0.567721
vt 0.914812 0.606195
vt 0.535616 0.545321
vt 0.125968 0.147628
vt 0.187132 0.136530
vt 0.187132 0.047251
vt 0.760133 0.197737
vt 0.764326 0.115363
vt 0.715001 0.297867
vt 0.764326 0.294168
vt 0.830915 0.579559
vt 0.827216 0.626665
vt 0.892326 0.635543
vt 0.892326 0.561802
vt 0.285536 0.107428
vt 0.285536 0.043305
vt 0.240896 0.044538
vt 0.233251 0.109894
vt 0.373132 0.058842
vt 0.309009 0.059089
vt 0.308022 0.100276
vt 0.373132 0.109894
vt 0.431046 0.109894
vt 0.431046 0.041514
vt 0.409675 0.044785
vt 0.404682 0.108752
vt 0.210765 0.696954
vt 0.161193 0.696460
vt 0.113347 0.436762
vt 0.021848 0.443667
vt 0.203119 0.377078
vt 0.804730 0.583752
vt 0.763050 0.561802
vt 0.730988 0.602988
vt 0.804730 0.633324
vt 0.736907 0.643929
vt 0.758117 0.648368
vt 0.825693 0.178993
vt 0.921631 0.221166
vt 0.895489 0.136820
vt 0.837531 0.134353
vt 0.358044 0.343987
vt 0.358784 0.132380
vt 0.269259 0.158523
vt 0.243856 0.180473
vt 0.233251 0.587451
vt 0.242869 0.696954
vt 0.240650 0.468330
vt 0.273698 0.373378
vt 0.921631 0.113637
vt 0.887350 0.116843
vt 0.406137 0.372639
vt 0.354345 0.375598
vt 0.321050 0.375105
vt 0.149644 0.030973
vt 0.120296 0.171841
vt 0.203902 0.277151
vt 0.203902 0.170114
vt 0.101799 0.269752
vt 0.100812 0.201683
vt 0.595096 0.017409
vt 0.656013 0.094850
vt 0.656013 0.011243
vt 0.629624 0.116800
vt 0.582519 0.121486
vt 0.431046 0.260626
vt 0.407863 0.138299
vt 0.431046 0.201436
vt 0.587451 0.196997
vt 0.630611 0.143972
vt 0.582519 0.232264
s 0
usemtl Material.001
f 1/1/1 2/2/1 3/3/1
s 1
f 4/4/2 5/5/3 6/6/4
f 7/7/5 8/8/6 9/9/7
s 0
f 10/10/8 11/11/8 12/12/8
s 1
f 13/13/9 14/14/10 15/15/11
f 16/16/12 17/17/13 18/18/14
f 19/19/15 18/18/14 17/17/13
f 20/20/16 21/21/17 17/17/13
f 21/21/17 19/19/15 17/17/13
f 22/22/18 23/23/19 24/24/20
f 25/25/21 26/26/22 27/27/23
f 28/28/24 29/29/25 30/30/26
f 31/31/27 32/32/28 33/33/29
f 34/34/30 35/35/31 32/32/28
f 36/36/32 37/37/33 38/38/34
f 39/39/35 29/29/25 40/40/36
f 41/41/37 42/42/38 43/43/39
f 32/32/28 35/35/31 33/33/29
f 44/44/40 45/45/41 46/46/42
s 0
f 47/47/43 48/48/43 49/49/43
s 1
f 50/50/44 51/51/45 52/52/46
f 53/53/47 54/54/48 55/55/49
f 56/56/50 57/57/51 58/58/52
f 59/59/53 60/60/54 61/61/55
f 59/59/53 61/61/55 62/62/56
f 60/60/54 63/63/57 64/64/58
f 60/60/54 64/64/58 61/61/55
f 50/50/44 65/65/59 66/66/60
f 50/50/44 66/66/60 51/51/45
f 67/67/61 6/6/4 5/5/3
f 67/67/61 5/5/3 68/68/62
f 69/69/63 66/66/60 65/65/59
f 69/69/63 65/65/59 70/70/63
f 67/67/61 68/68/62 37/37/33
f 67/67/61 37/37/33 36/36/32
f 71/71/64 62/62/56 61/61/55
f 71/71/64 61/61/55 72/72/65
f 73/73/66 74/74/67 75/75/68
f 73/73/66 75/75/68 76/76/66
f 74/74/67 77/77/69 78/78/70
f 74/74/67 78/78/70 75/75/68
f 77/77/69 79/79/71 80/80/72
f 77/77/69 80/80/72 78/78/70
f 21/21/17 23/23/19 22/22/18
f 21/21/17 22/22/18 19/19/15
f 81/81/73 82/82/74 45/45/41
f 81/81/73 45/45/41 44/44/40
f 83/83/75 84/84/76 85/85/77
f 83/83/75 85/85/77 86/86/77
f 87/87/78 88/88/79 84/84/76
f 87/87/78 84/84/76 83/83/75
f 63/63/57 89/89/80 90/90/81
f 63/63/57 90/90/81 64/64/58
f 81/81/73 44/44/40 90/90/81
f 81/81/73 90/90/81 89/89/80
f 91/91/82 92/92/83 93/93/84
f 91/91/82 93/93/84 94/94/85
f 94/94/85 93/93/84 88/88/79
f 94/94/85 88/88/79 87/87/78
f 92/92/83 95/95/86 96/96/87
f 92/92/83 96/96/87 93/93/84
f 97/97/88 98/98/89 99/99/90
f 97/97/88 99/99/90 100/100/91
f 101/101/92 88/88/79 93/93/84
f 101/101/92 93/93/84 96/96/87
f 80/80/72 79/79/71 102/102/93
f 80/80/72 102/102/93 103/103/94
f 104/104/95 105/105/96 106/106/97
f 104/104/95 106/106/97 107/107/98
f 108/108/99 55/55/49 106/106/97
f 108/108/99 106/106/97 105/105/96
f 109/109/100 26/26/22 25/25/21
f 109/109/100 25/25/21 110/110/100
f 111/111/101 112/112/102 113/113/103
f 111/111/101 113/113/103 114/114/104
f 112/112/102 33/33/29 35/35/31
f 112/112/102 35/35/31 113/113/103
f 115/115/105 53/53/47 55/55/49
f 115/115/105 55/55/49 108/108/99
f 32/32/28 31/31/27 116/116/106
f 32/32/28 116/116/106 117/117/107
f 100/100/91 99/99/90 118/118/108
f 100/100/91 118/118/108 119/119/109
f 120/120/110 121/121/111 122/122/110
f 120/120/110 122/122/110 123/123/112
f 32/32/28 117/117/107 124/124/113
f 32/32/28 124/124/113 34/34/30
f 125/125/114 126/126/114 127/127/115
f 125/125/114 127/127/115 57/57/51
f 128/128/116 129/129/117 9/9/7
f 128/128/116 9/9/7 8/8/6
f 128/128/116 8/8/6 130/130/118
f 128/128/116 130/130/118 131/131/118
f 132/132/119 133/133/119 134/134/119
f 132/132/119 134/134/119 135/135/120
f 136/136/121 137/137/122 138/138/121
f 136/136/121 138/138/121 139/139/121
f 140/140/123 141/141/123 142/142/123
f 140/140/123 142/142/123 143/143/123
f 144/144/124 145/145/125 146/146/125
f 144/144/124 146/146/125 147/147/125
f 148/148/126 39/39/35 40/40/36
f 148/148/126 40/40/36 149/149/126
f 150/150/127 151/151/128 30/30/26
f 150/150/127 30/30/26 29/29/25
f 152/152/129 150/150/127 29/29/25
f 152/152/129 29/29/25 39/39/35
f 151/151/128 150/150/127 99/99/90
f 151/151/128 99/99/90 98/98/89
f 99/99/90 150/150/127 152/152/129
f 99/99/90 152/152/129 118/118/108
f 153/153/130 154/154/130 155/155/131
f 153/153/130 155/155/131 156/156/132
f 155/155/131 157/157/133 158/158/133
f 155/155/131 158/158/133 156/156/132
f 159/159/134 160/160/134 161/161/135
f 159/159/134 161/161/135 162/162/136
f 163/163/137 164/164/138 165/165/139
f 163/163/137 165/165/139 42/42/38
f 166/166/140 43/43/39 42/42/38
f 166/166/140 42/42/38 165/165/139
f 107/107/98 106/106/97 167/167/141
f 107/107/98 167/167/141 168/168/142
f 55/55/49 169/169/143 167/167/141
f 55/55/49 167/167/141 106/106/97
f 170/170/144 169/169/143 55/55/49
f 170/170/144 55/55/49 54/54/48
f 162/162/136 161/161/135 171/171/145
f 162/162/136 171/171/145 172/172/146
f 173/173/147 174/174/148 53/53/47
f 173/173/147 53/53/47 115/115/105
f 53/53/47 174/174/148 175/175/149
f 53/53/47 175/175/149 54/54/48
f 57/57/51 127/127/115 176/176/150
f 57/57/51 176/176/150 58/58/52
f 180/177/151 178/178/151 179/179/151
f 178/178/151 180/177/151 177/180/151
f 177/180/151 180/177/151 181/181/152
f 182/182/153 185/183/154 186/184/155
f 185/183/154 182/182/153 184/185/155
f 184/185/155 182/182/153 183/186/156
f 188/187/157 164/164/138 163/163/137
f 164/164/138 188/187/157 187/188/158
f 187/188/158 188/187/157 189/189/158
f 191/190/159 15/15/11 190/191/160
f 15/15/11 191/190/159 13/13/9
f 13/13/9 191/190/159 192/192/161
