# Blender 5.1.0
# www.blender.org
mtllib snowman.mtl
o Winter_Snowman_winter_snowman_0
v -0.107351 0.510204 0.107351
v -0.130876 0.617555 0.130876
v -0.180244 0.617555 -0.000000
v -0.130876 0.486679 -0.000000
v -0.107351 0.724907 0.107351
v -0.130876 0.748431 -0.000000
v -0.107351 0.724907 -0.107352
v -0.130876 0.617555 -0.130876
v -0.107351 0.510204 -0.107352
v -0.107351 0.510204 -0.107352
v -0.130876 0.617555 -0.130876
v -0.000000 0.617555 -0.180245
v 0.000000 0.486679 -0.130876
v -0.107351 0.724907 -0.107352
v -0.000000 0.748431 -0.130876
v 0.107351 0.724907 -0.107352
v 0.130876 0.617555 -0.130876
v 0.107351 0.510204 -0.107352
v 0.107351 0.510204 -0.107352
v 0.130876 0.617555 -0.130876
v 0.180244 0.617555 -0.000000
v 0.130876 0.486679 -0.000000
v 0.107351 0.724907 -0.107352
v 0.130876 0.748431 -0.000000
v 0.107351 0.724907 0.107351
v 0.130876 0.617555 0.130876
v 0.107351 0.510204 0.107351
v 0.000000 0.617555 0.180244
v -0.000000 0.486679 0.130876
v 0.000000 0.748431 0.130876
v -0.000000 0.437311 -0.000000
v -0.130876 0.486679 -0.000000
v 0.130876 0.486679 -0.000000
v 0.107351 0.510204 0.107351
v -0.000000 0.486679 0.130876
v -0.107351 0.510204 0.107351
v -0.000000 0.797800 -0.000000
v 0.130876 0.748431 -0.000000
v -0.130876 0.748431 -0.000000
v -0.146742 0.100548 0.146742
v -0.178899 0.247290 0.178899
v -0.246382 0.247290 -0.000000
v -0.178899 0.068391 -0.000000
v -0.146742 0.394033 0.146742
v -0.178899 0.426189 -0.000000
v -0.146742 0.394033 -0.146743
v -0.178899 0.247290 -0.178899
v -0.146742 0.100548 -0.146743
v -0.146742 0.100548 -0.146743
v -0.178899 0.247290 -0.178899
v -0.000000 0.247290 -0.246383
v 0.000000 0.068391 -0.178899
v -0.146742 0.394033 -0.146743
v -0.000000 0.426189 -0.178899
v 0.146742 0.394033 -0.146743
v 0.178899 0.247290 -0.178899
v 0.146742 0.100548 -0.146743
v 0.146742 0.100548 -0.146743
v 0.178899 0.247290 -0.178899
v 0.246382 0.247290 -0.000000
v 0.178899 0.068391 -0.000000
v 0.146742 0.394033 -0.146743
v 0.178899 0.426189 -0.000000
v 0.146742 0.394033 0.146742
v 0.178899 0.247290 0.178899
v 0.146742 0.100548 0.146742
v 0.000000 0.247290 0.246382
v -0.000000 0.068391 0.178899
v 0.000000 0.426189 0.178899
v -0.000000 0.000908 -0.000000
v -0.178899 0.068391 -0.000000
v 0.178899 0.068391 -0.000000
v 0.146742 0.100548 0.146742
v -0.000000 0.068391 0.178899
v -0.146742 0.100548 0.146742
v -0.000000 0.493673 -0.000000
v 0.178899 0.426189 -0.000000
v -0.178899 0.426189 -0.000000
v -0.202085 0.540453 0.003426
v -0.212186 0.618679 0.003426
v -0.212186 0.618679 -0.003427
v -0.202085 0.540453 -0.003427
v -0.202085 0.540453 -0.003427
v -0.212186 0.618679 -0.003427
v -0.208367 0.619129 -0.003427
v -0.190598 0.528998 -0.003427
v -0.190598 0.528998 -0.003427
v -0.208367 0.619129 -0.003427
v -0.208367 0.619129 0.003426
v -0.190598 0.528998 0.003426
v -0.190598 0.528998 0.003426
v -0.208367 0.619129 0.003426
v -0.212186 0.618679 0.003426
v -0.202085 0.540453 0.003426
v -0.208367 0.619129 -0.003427
v -0.212186 0.618679 -0.003427
v -0.212186 0.618679 0.003426
v -0.208367 0.619129 0.003426
v -0.158690 0.402309 0.003426
v -0.184372 0.510326 0.003426
v -0.198050 0.523764 0.003426
v -0.164140 0.398317 0.003426
v -0.184372 0.510326 0.003426
v -0.190598 0.528998 0.003426
v -0.202085 0.540453 0.003426
v -0.198050 0.523764 0.003426
v -0.158690 0.402309 -0.003427
v -0.184372 0.510326 -0.003427
v -0.184372 0.510326 0.003426
v -0.158690 0.402309 0.003426
v -0.184372 0.510326 -0.003427
v -0.190598 0.528998 -0.003427
v -0.190598 0.528998 0.003426
v -0.184372 0.510326 0.003426
v -0.164140 0.398317 -0.003427
v -0.198050 0.523764 -0.003427
v -0.184372 0.510326 -0.003427
v -0.158690 0.402309 -0.003427
v -0.198050 0.523764 -0.003427
v -0.202085 0.540453 -0.003427
v -0.190598 0.528998 -0.003427
v -0.184372 0.510326 -0.003427
v -0.164140 0.398317 0.003426
v -0.198050 0.523764 0.003426
v -0.198050 0.523764 -0.003427
v -0.164140 0.398317 -0.003427
v -0.202085 0.540453 0.003426
v -0.202085 0.540453 -0.003427
v -0.259586 0.580322 -0.003427
v -0.259586 0.580322 0.003426
v -0.263499 0.576244 0.003426
v -0.259586 0.580322 0.003426
v -0.259586 0.580322 -0.003427
v -0.263499 0.576244 -0.003427
v -0.202085 0.540453 -0.003427
v -0.198050 0.523764 -0.003427
v -0.263499 0.576244 -0.003427
v -0.259586 0.580322 -0.003427
v -0.198050 0.523764 -0.003427
v -0.198050 0.523764 0.003426
v -0.263499 0.576244 0.003426
v -0.263499 0.576244 -0.003427
v -0.198050 0.523764 0.003426
v -0.202085 0.540453 0.003426
v -0.259586 0.580322 0.003426
v -0.263499 0.576244 0.003426
v 0.202178 0.540255 0.003426
v 0.202178 0.540255 -0.003427
v 0.194644 0.618427 -0.003427
v 0.194644 0.618427 0.003426
v 0.202178 0.540255 -0.003427
v 0.192119 0.528998 -0.003427
v 0.188196 0.619928 -0.003427
v 0.194644 0.618427 -0.003427
v 0.192119 0.528998 -0.003427
v 0.192119 0.528998 0.003426
v 0.188196 0.619928 0.003426
v 0.188196 0.619928 -0.003427
v 0.192119 0.528998 0.003426
v 0.202178 0.540255 0.003426
v 0.194644 0.618427 0.003426
v 0.188196 0.619928 0.003426
v 0.188196 0.619928 -0.003427
v 0.188196 0.619928 0.003426
v 0.194644 0.618427 0.003426
v 0.194644 0.618427 -0.003427
v 0.154483 0.401258 0.003426
v 0.165718 0.395162 0.003426
v 0.200680 0.525342 0.003426
v 0.189190 0.519455 0.003426
v 0.189190 0.519455 0.003426
v 0.200680 0.525342 0.003426
v 0.202178 0.540255 0.003426
v 0.192119 0.528998 0.003426
v 0.154483 0.401258 -0.003427
v 0.154483 0.401258 0.003426
v 0.189190 0.519455 0.003426
v 0.189190 0.519455 -0.003427
v 0.189190 0.519455 -0.003427
v 0.189190 0.519455 0.003426
v 0.192119 0.528998 0.003426
v 0.192119 0.528998 -0.003427
v 0.165718 0.395162 -0.003427
v 0.154483 0.401258 -0.003427
v 0.189190 0.519455 -0.003427
v 0.200680 0.525342 -0.003427
v 0.200680 0.525342 -0.003427
v 0.189190 0.519455 -0.003427
v 0.192119 0.528998 -0.003427
v 0.202178 0.540255 -0.003427
v 0.165718 0.395162 0.003426
v 0.165718 0.395162 -0.003427
v 0.200680 0.525342 -0.003427
v 0.200680 0.525342 0.003426
v 0.202178 0.540255 0.003426
v 0.233852 0.564637 0.003426
v 0.233852 0.564637 -0.003427
v 0.202178 0.540255 -0.003427
v 0.236151 0.559826 0.003426
v 0.236151 0.559826 -0.003427
v 0.233852 0.564637 -0.003427
v 0.233852 0.564637 0.003426
v 0.202178 0.540255 -0.003427
v 0.233852 0.564637 -0.003427
v 0.236151 0.559826 -0.003427
v 0.200680 0.525342 -0.003427
v 0.200680 0.525342 -0.003427
v 0.236151 0.559826 -0.003427
v 0.236151 0.559826 0.003426
v 0.200680 0.525342 0.003426
v 0.200680 0.525342 0.003426
v 0.236151 0.559826 0.003426
v 0.233852 0.564637 0.003426
v 0.202178 0.540255 0.003426
v -0.005830 0.572591 0.233648
v 0.001048 0.569029 0.281786
v 0.004831 0.570596 0.281785
v 0.001514 0.575633 0.233648
v 0.006609 0.565246 0.284961
v 0.005049 0.565246 0.284961
v 0.005049 0.563686 0.284961
v 0.006152 0.564143 0.284961
v 0.008859 0.557902 0.233648
v 0.008613 0.561463 0.281783
v 0.004831 0.559897 0.281785
v 0.001514 0.554859 0.233648
v 0.003490 0.565246 0.284961
v 0.003947 0.564143 0.284961
v -0.005830 0.557902 0.233648
v 0.001048 0.561464 0.281786
v -0.000518 0.565246 0.281787
v -0.008873 0.565246 0.233648
v 0.001514 0.554859 0.233648
v 0.004831 0.559897 0.281785
v 0.005049 0.566806 0.284961
v 0.003947 0.566349 0.284961
v -0.014938 0.580184 0.131022
v -0.009106 0.576387 0.182335
v 0.002036 0.581002 0.182335
v 0.000000 0.586372 0.131022
v -0.021126 0.565246 0.131022
v -0.013721 0.565246 0.182335
v -0.014938 0.550308 0.131022
v -0.009106 0.554105 0.182335
v 0.000000 0.544120 0.131022
v 0.002036 0.549490 0.182335
v 0.014938 0.550308 0.131022
v 0.013177 0.554105 0.182335
v 0.002036 0.549490 0.182335
v 0.000000 0.544120 0.131022
v 0.021126 0.565246 0.131022
v 0.017792 0.565246 0.182335
v 0.011901 0.565246 0.233648
v 0.014938 0.580184 0.131022
v 0.013177 0.576387 0.182335
v 0.008859 0.572591 0.233648
v 0.008613 0.569029 0.281783
v 0.010180 0.565246 0.281782
v 0.008613 0.569029 0.281783
v 0.004831 0.570596 0.281785
v 0.004985 0.569348 0.284030
v 0.007886 0.568147 0.284030
v 0.006152 0.566349 0.284961
v 0.010180 0.565246 0.281782
v 0.009087 0.565246 0.284030
v 0.008613 0.561463 0.281783
v 0.007886 0.562346 0.284030
v 0.004831 0.559897 0.281785
v 0.004985 0.561144 0.284030
v 0.001048 0.561464 0.281786
v 0.002085 0.562346 0.284031
v -0.000518 0.565246 0.281787
v 0.000884 0.565246 0.284031
v 0.001048 0.569029 0.281786
v 0.002085 0.568147 0.284031
v 0.000000 0.446786 -0.126517
v 0.000000 0.485366 -0.126517
v 0.089461 0.485366 -0.089461
v 0.089461 0.446786 -0.089461
v 0.126517 0.485366 -0.000000
v 0.126517 0.446786 -0.000000
v 0.089461 0.485366 0.089461
v 0.089461 0.446786 0.089461
v 0.091121 0.440658 0.112046
v 0.091121 0.479239 0.112046
v 0.000000 0.485366 0.126517
v 0.000000 0.446786 0.126517
v -0.089461 0.485366 0.089461
v -0.089461 0.446786 0.089461
v -0.126517 0.485366 -0.000000
v -0.126517 0.446786 -0.000000
v -0.089461 0.485366 -0.089461
v -0.089461 0.446786 -0.089461
v 0.153891 0.414495 0.094018
v 0.166592 0.452557 0.094018
v 0.203063 0.377964 0.074442
v 0.220186 0.417111 0.074442
v 0.000000 0.446786 -0.115693
v 0.081807 0.446786 -0.081807
v 0.081807 0.485366 -0.081807
v 0.000000 0.485366 -0.115693
v 0.115693 0.446786 -0.000000
v 0.115693 0.485366 -0.000000
v 0.080222 0.446786 0.085634
v 0.080222 0.485366 0.085634
v 0.089142 0.440856 0.102235
v 0.001219 0.446786 0.116198
v 0.001219 0.485366 0.116198
v 0.089142 0.479436 0.102235
v -0.081807 0.446786 0.081807
v -0.081807 0.485366 0.081807
v -0.115693 0.446786 -0.000000
v -0.115693 0.485366 -0.000000
v -0.081807 0.446786 -0.081807
v -0.081807 0.485366 -0.081807
v 0.163970 0.453308 0.084388
v 0.151268 0.415245 0.084388
v 0.217331 0.418213 0.064921
v 0.200208 0.379067 0.064921
v -0.126517 0.485366 -0.000000
v -0.089461 0.485366 0.089461
v -0.081807 0.485366 0.081807
v -0.115693 0.485366 -0.000000
v 0.091121 0.440658 0.112046
v 0.000000 0.446786 0.126517
v 0.001219 0.446786 0.116198
v 0.089142 0.440856 0.102235
v 0.000000 0.485366 0.126517
v 0.091121 0.479239 0.112046
v 0.089142 0.479436 0.102235
v 0.001219 0.485366 0.116198
v 0.166592 0.452557 0.094018
v 0.163970 0.453308 0.084388
v 0.089461 0.446786 -0.089461
v 0.126517 0.446786 -0.000000
v 0.115693 0.446786 -0.000000
v 0.081807 0.446786 -0.081807
v -0.126517 0.446786 -0.000000
v -0.089461 0.446786 -0.089461
v -0.081807 0.446786 -0.081807
v -0.115693 0.446786 -0.000000
v 0.153891 0.414495 0.094018
v 0.151268 0.415245 0.084388
v 0.126517 0.485366 -0.000000
v 0.089461 0.485366 -0.089461
v 0.081807 0.485366 -0.081807
v 0.115693 0.485366 -0.000000
v -0.089461 0.485366 -0.089461
v -0.081807 0.485366 -0.081807
v -0.089461 0.446786 0.089461
v -0.081807 0.446786 0.081807
v 0.220186 0.417111 0.074442
v 0.203063 0.377964 0.074442
v 0.200208 0.379067 0.064921
v 0.217331 0.418213 0.064921
v 0.220186 0.417111 0.074442
v 0.217331 0.418213 0.064921
v 0.089461 0.446786 0.089461
v 0.080222 0.446786 0.085634
v 0.000000 0.446786 -0.126517
v 0.000000 0.446786 -0.115693
v 0.203063 0.377964 0.074442
v 0.200208 0.379067 0.064921
v 0.089461 0.485366 0.089461
v 0.080222 0.485366 0.085634
v 0.000000 0.485366 -0.126517
v 0.000000 0.485366 -0.115693
v 0.089461 0.485366 0.089461
v 0.080222 0.485366 0.085634
vn -0.5774 -0.5773 0.5774
vn -0.7071 -0.0000 0.7071
vn -1.0000 -0.0000 -0.0000
vn -0.7071 -0.7071 -0.0000
vn -0.5774 0.5773 0.5773
vn -0.7071 0.7071 -0.0000
vn -0.5774 0.5774 -0.5773
vn -0.7071 -0.0000 -0.7071
vn -0.5773 -0.5773 -0.5774
vn -0.5773 -0.5774 -0.5774
vn -0.0000 -0.0000 -1.0000
vn -0.0000 -0.7071 -0.7071
vn -0.5773 0.5774 -0.5774
vn -0.0000 0.7071 -0.7071
vn 0.5773 0.5774 -0.5774
vn 0.7071 -0.0000 -0.7071
vn 0.5773 -0.5774 -0.5774
vn 0.5774 -0.5774 -0.5773
vn 1.0000 -0.0000 -0.0000
vn 0.7071 -0.7071 -0.0000
vn 0.5773 0.5773 -0.5774
vn 0.7071 0.7071 -0.0000
vn 0.5774 0.5773 0.5773
vn 0.7071 -0.0000 0.7071
vn 0.5774 -0.5773 0.5774
vn -0.0000 -0.0000 1.0000
vn -0.0000 -0.7071 0.7071
vn -0.0000 0.7071 0.7071
vn -0.0000 -1.0000 -0.0000
vn 0.5774 -0.5774 0.5773
vn -0.5773 -0.5773 0.5774
vn -0.0000 1.0000 -0.0000
vn -0.9918 -0.1281 -0.0000
vn 0.9811 0.1934 -0.0000
vn -0.1170 0.9931 -0.0000
vn 0.9729 0.2313 -0.0000
vn 0.9487 0.3163 -0.0000
vn -0.9654 -0.2609 -0.0000
vn 0.5698 0.8218 -0.0000
vn -0.7215 0.6924 -0.0000
vn -0.6256 -0.7802 -0.0000
vn 0.9954 0.0959 -0.0000
vn -0.9991 -0.0431 -0.0000
vn 0.2268 0.9739 -0.0000
vn -0.9595 0.2817 -0.0000
vn -0.9560 0.2934 -0.0000
vn 0.9658 -0.2594 -0.0000
vn -0.6100 0.7924 -0.0000
vn 0.9023 0.4312 -0.0000
vn 0.6970 -0.7170 -0.0000
vn -0.7061 0.6972 0.1238
vn -0.6660 0.6707 0.3264
vn 0.0042 0.9578 0.2875
vn -0.0091 0.9945 0.1046
vn 0.2211 -0.0000 0.9752
vn 0.0019 -0.2161 0.9764
vn 0.1563 -0.1543 0.9756
vn 0.6999 -0.7092 0.0844
vn 0.6870 -0.6832 0.2475
vn 0.0043 -0.9578 0.2875
vn -0.0090 -0.9945 0.1046
vn -0.2111 -0.0000 0.9775
vn -0.1494 -0.1512 0.9771
vn -0.7061 -0.6972 0.1238
vn -0.6660 -0.6707 0.3265
vn -0.9396 -0.0000 0.3423
vn -0.9913 -0.0000 0.1314
vn -0.0091 -0.9945 0.1046
vn 0.0042 -0.9578 0.2875
vn 0.0019 0.2161 0.9764
vn -0.1494 0.1513 0.9771
vn -0.7055 0.6964 0.1317
vn -0.6993 0.7056 0.1147
vn 0.0062 0.9946 0.1039
vn -0.0092 0.9945 0.1044
vn -0.9897 -0.0000 0.1428
vn -0.9929 -0.0000 0.1192
vn -0.7055 -0.6964 0.1317
vn -0.6993 -0.7056 0.1147
vn -0.0092 -0.9945 0.1044
vn 0.0062 -0.9946 0.1039
vn 0.7004 -0.7097 0.0765
vn 0.7071 -0.7009 0.0933
vn 0.0063 -0.9946 0.1039
vn 0.9979 -0.0000 0.0648
vn 0.9960 -0.0000 0.0889
vn 0.9971 -0.0000 0.0757
vn 0.7003 0.7097 0.0765
vn 0.7071 0.7009 0.0933
vn 0.6999 0.7092 0.0844
vn 0.6870 0.6832 0.2475
vn 0.9730 -0.0000 0.2307
vn 0.6870 0.6832 0.2476
vn 0.0091 0.6947 0.7192
vn 0.5074 0.4981 0.7031
vn 0.1563 0.1543 0.9756
vn 0.9730 -0.0000 0.2308
vn 0.7177 -0.0000 0.6964
vn 0.6870 -0.6832 0.2476
vn 0.5074 -0.4981 0.7032
vn 0.0042 -0.9578 0.2876
vn 0.0090 -0.6947 0.7192
vn -0.4752 -0.4840 0.7348
vn -0.9396 -0.0000 0.3424
vn -0.6715 -0.0000 0.7410
vn -0.6660 0.6707 0.3265
vn -0.4752 0.4840 0.7348
vn 0.9239 -0.0000 0.3827
vn 0.2029 -0.0223 0.9789
vn 0.1920 -0.0170 0.9812
vn -0.1234 -0.0000 0.9924
vn -0.1115 -0.0000 0.9938
vn 0.2646 -0.0788 0.9611
vn 0.2598 -0.0717 0.9630
vn 0.2855 -0.1103 0.9520
vn -0.9239 -0.0000 -0.3827
vn -0.2029 0.0223 -0.9790
vn 0.1115 -0.0000 -0.9938
vn 0.1234 -0.0000 -0.9924
vn -0.1921 0.0170 -0.9812
vn -0.2599 0.0717 -0.9630
vn -0.2645 0.0788 -0.9612
vn -0.2855 0.1103 -0.9520
vn -0.2217 -0.9749 0.0178
vn -0.0342 -0.9994 -0.0040
vn -0.2242 -0.9744 0.0182
vn 0.0343 0.9994 0.0040
vn 0.1990 0.9799 -0.0120
vn 0.1977 0.9802 -0.0118
vn 0.0343 0.9994 0.0041
vn 0.4317 0.9006 -0.0510
vn 0.4302 0.9013 -0.0507
vn -0.4738 -0.8783 0.0638
vn -0.4760 -0.8771 0.0643
vn 0.9200 0.3047 -0.2463
vn 0.8723 -0.3816 -0.3058
vn 0.9207 0.3023 -0.2468
vn 0.9207 0.3022 -0.2468
vn -0.2706 -0.7071 0.6533
vn -0.5714 -0.8163 0.0844
vn -0.2706 0.7071 0.6533
vt 0.818964 0.388169
vt 0.818237 0.458100
vt 0.894394 0.459817
vt 0.893418 0.373962
vt 0.815865 0.527994
vt 0.889615 0.545541
vt 0.964853 0.536407
vt 0.979807 0.461742
vt 0.968176 0.386477
vt 0.819919 0.827232
vt 0.833035 0.752226
vt 0.749235 0.753360
vt 0.750170 0.828506
vt 0.817892 0.677602
vt 0.748304 0.678493
vt 0.678714 0.679330
vt 0.665432 0.754307
vt 0.680411 0.828964
vt 0.521232 0.392026
vt 0.511478 0.467556
vt 0.596816 0.463511
vt 0.595656 0.377658
vt 0.528285 0.541826
vt 0.603727 0.549091
vt 0.677018 0.529718
vt 0.672908 0.459904
vt 0.670441 0.390012
vt 0.745540 0.456462
vt 0.744514 0.373962
vt 0.746446 0.529263
vt 0.751127 0.905404
vt 0.836533 0.901547
vt 0.665652 0.903669
vt 0.677419 0.978912
vt 0.752196 0.991317
vt 0.826641 0.977059
vt 0.747373 0.603739
vt 0.663679 0.604684
vt 0.831065 0.602606
vt 0.437039 0.148250
vt 0.436046 0.243841
vt 0.540148 0.246188
vt 0.538814 0.128830
vt 0.432803 0.339382
vt 0.533615 0.363368
vt 0.636461 0.350882
vt 0.656902 0.248819
vt 0.641003 0.145938
vt 0.438345 0.748422
vt 0.456275 0.645893
vt 0.341725 0.647443
vt 0.343003 0.750163
vt 0.435574 0.543887
vt 0.340451 0.545104
vt 0.245327 0.546249
vt 0.227172 0.648737
vt 0.247647 0.750789
vt 0.030059 0.153522
vt 0.016726 0.256767
vt 0.133378 0.251238
vt 0.131792 0.133883
vt 0.039700 0.358290
vt 0.142825 0.368220
vt 0.243009 0.341739
vt 0.237390 0.246308
vt 0.234018 0.150770
vt 0.336675 0.241602
vt 0.335271 0.128830
vt 0.337913 0.341116
vt 0.344311 0.855278
vt 0.461055 0.850005
vt 0.227472 0.852905
vt 0.243557 0.955757
vt 0.345772 0.972714
vt 0.447534 0.953225
vt 0.339180 0.442920
vt 0.224775 0.444213
vt 0.453582 0.441372
vt 0.602854 0.748355
vt 0.602854 0.611123
vt 0.590781 0.611123
vt 0.590781 0.748355
vt 0.570520 0.611123
vt 0.570520 0.748355
vt 0.635188 0.748355
vt 0.635188 0.611123
vt 0.623115 0.611123
vt 0.623115 0.748355
vt 0.635188 0.592638
vt 0.623115 0.592638
vt 0.623115 0.964812
vt 0.623115 0.771129
vt 0.602854 0.771129
vt 0.602854 0.964812
vt 0.635188 0.964812
vt 0.635188 0.771129
vt 0.590781 0.964812
vt 0.590781 0.771129
vt 0.570520 0.771129
vt 0.570520 0.964812
vt 0.764476 0.178497
vt 0.753742 0.178497
vt 0.753742 0.303044
vt 0.764476 0.303044
vt 0.764476 0.325982
vt 0.753742 0.325982
vt 0.819591 0.178497
vt 0.797400 0.178497
vt 0.797400 0.303044
vt 0.819591 0.303044
vt 0.786667 0.178497
vt 0.786667 0.303044
vt 0.517178 0.816746
vt 0.504687 0.816746
vt 0.504687 0.966356
vt 0.517178 0.966356
vt 0.483085 0.816746
vt 0.483085 0.966356
vt 0.551272 0.816746
vt 0.538781 0.816746
vt 0.538781 0.966356
vt 0.551272 0.966356
vt 0.538781 0.987273
vt 0.551272 0.987273
vt 0.538781 0.571276
vt 0.517178 0.571276
vt 0.517178 0.798919
vt 0.538781 0.798919
vt 0.551272 0.571276
vt 0.551272 0.798919
vt 0.504687 0.571276
vt 0.483085 0.571276
vt 0.483085 0.798919
vt 0.504687 0.798919
vt 0.865327 0.178855
vt 0.865327 0.253349
vt 0.877707 0.253349
vt 0.877707 0.178855
vt 0.865327 0.270175
vt 0.877707 0.270174
vt 0.895954 0.253349
vt 0.895954 0.178855
vt 0.834701 0.178855
vt 0.834701 0.253349
vt 0.847081 0.253349
vt 0.847081 0.178855
vt 0.142527 0.757950
vt 0.142527 0.653270
vt 0.117508 0.653270
vt 0.117508 0.757950
vt 0.039569 0.617499
vt 0.036724 0.616259
vt 0.035501 0.619201
vt 0.037913 0.619176
vt 0.042448 0.757950
vt 0.042448 0.653270
vt 0.017429 0.653270
vt 0.017429 0.757950
vt 0.033759 0.614968
vt 0.033758 0.617473
vt 0.192567 0.757950
vt 0.192567 0.653270
vt 0.167547 0.653270
vt 0.167547 0.757950
vt 0.217586 0.757950
vt 0.217586 0.653270
vt 0.038042 0.613360
vt 0.035591 0.613261
vt 0.142527 0.980696
vt 0.142527 0.869283
vt 0.117508 0.869283
vt 0.117508 0.980696
vt 0.167547 0.980696
vt 0.167547 0.869283
vt 0.192567 0.980696
vt 0.192567 0.869283
vt 0.217586 0.980696
vt 0.217586 0.869283
vt 0.042448 0.980696
vt 0.042448 0.869283
vt 0.017428 0.869283
vt 0.017428 0.980696
vt 0.067468 0.980696
vt 0.067468 0.869283
vt 0.067468 0.757950
vt 0.092488 0.980696
vt 0.092488 0.869283
vt 0.092488 0.757950
vt 0.092488 0.653270
vt 0.067468 0.653270
vt 0.050495 0.610106
vt 0.042037 0.601891
vt 0.040109 0.608267
vt 0.044582 0.613109
vt 0.039668 0.615143
vt 0.050495 0.622257
vt 0.044181 0.619507
vt 0.041606 0.630536
vt 0.039775 0.624160
vt 0.029833 0.629941
vt 0.033184 0.624184
vt 0.022093 0.621321
vt 0.028474 0.619449
vt 0.022503 0.610066
vt 0.028397 0.612633
vt 0.030457 0.602097
vt 0.033436 0.608045
vt 0.651105 0.018620
vt 0.651064 0.056709
vt 0.741863 0.056709
vt 0.741904 0.018620
vt 0.832662 0.056709
vt 0.832703 0.018620
vt 0.925490 0.056709
vt 0.925531 0.018620
vt 0.198271 0.018620
vt 0.198230 0.056709
vt 0.287221 0.056709
vt 0.287262 0.018620
vt 0.378667 0.056709
vt 0.378707 0.018620
vt 0.469466 0.056709
vt 0.469507 0.018620
vt 0.560265 0.056709
vt 0.560306 0.018620
vt 0.124023 0.018620
vt 0.123982 0.056709
vt 0.059823 0.018620
vt 0.059782 0.056709
vt 0.651012 0.105014
vt 0.741812 0.105014
vt 0.741852 0.066925
vt 0.651053 0.066925
vt 0.832611 0.105014
vt 0.832651 0.066925
vt 0.925439 0.105014
vt 0.925479 0.066925
vt 0.198179 0.105014
vt 0.287170 0.105014
vt 0.287210 0.066925
vt 0.198219 0.066925
vt 0.378615 0.105014
vt 0.378656 0.066925
vt 0.469414 0.105014
vt 0.469455 0.066925
vt 0.560213 0.105014
vt 0.560254 0.066925
vt 0.123971 0.066925
vt 0.123930 0.105014
vt 0.059771 0.066925
vt 0.059731 0.105014
vt 0.287273 0.008404
vt 0.198282 0.008404
vt 0.832714 0.008404
vt 0.741915 0.008404
vt 0.560317 0.008404
vt 0.469517 0.008404
vt 0.124033 0.008404
vt 0.378718 0.008404
vt 0.021523 0.018620
vt 0.059834 0.008404
vt 0.021534 0.008404
vt 0.925542 0.008404
vt 0.651116 0.008404
vt 0.963831 0.018620
vt 0.963842 0.008404
s 1
usemtl winter_snowman
f 1/1/1 2/2/2 3/3/3
f 1/1/1 3/3/3 4/4/4
f 2/2/2 5/5/5 6/6/6
f 2/2/2 6/6/6 3/3/3
f 3/3/3 6/6/6 7/7/7
f 3/3/3 7/7/7 8/8/8
f 4/4/4 3/3/3 8/8/8
f 4/4/4 8/8/8 9/9/9
f 10/10/10 11/11/8 12/12/11
f 10/10/10 12/12/11 13/13/12
f 11/11/8 14/14/13 15/15/14
f 11/11/8 15/15/14 12/12/11
f 12/12/11 15/15/14 16/16/15
f 12/12/11 16/16/15 17/17/16
f 13/13/12 12/12/11 17/17/16
f 13/13/12 17/17/16 18/18/17
f 19/19/18 20/20/16 21/21/19
f 19/19/18 21/21/19 22/22/20
f 20/20/16 23/23/21 24/24/22
f 20/20/16 24/24/22 21/21/19
f 21/21/19 24/24/22 25/25/23
f 21/21/19 25/25/23 26/26/24
f 22/22/20 21/21/19 26/26/24
f 22/22/20 26/26/24 27/27/25
f 27/27/25 26/26/24 28/28/26
f 27/27/25 28/28/26 29/29/27
f 26/26/24 25/25/23 30/30/28
f 26/26/24 30/30/28 28/28/26
f 28/28/26 30/30/28 5/5/5
f 28/28/26 5/5/5 2/2/2
f 29/29/27 28/28/26 2/2/2
f 29/29/27 2/2/2 1/1/1
f 10/10/10 13/13/12 31/31/29
f 10/10/10 31/31/29 32/32/4
f 13/13/12 18/18/17 33/33/20
f 13/13/12 33/33/20 31/31/29
f 31/31/29 33/33/20 34/34/30
f 31/31/29 34/34/30 35/35/27
f 32/32/4 31/31/29 35/35/27
f 32/32/4 35/35/27 36/36/31
f 16/16/15 15/15/14 37/37/32
f 16/16/15 37/37/32 38/38/22
f 15/15/14 14/14/13 39/39/6
f 15/15/14 39/39/6 37/37/32
f 37/37/32 39/39/6 5/5/5
f 37/37/32 5/5/5 30/30/28
f 38/38/22 37/37/32 30/30/28
f 38/38/22 30/30/28 25/25/23
f 40/40/1 41/41/2 42/42/3
f 40/40/1 42/42/3 43/43/4
f 41/41/2 44/44/5 45/45/6
f 41/41/2 45/45/6 42/42/3
f 42/42/3 45/45/6 46/46/7
f 42/42/3 46/46/7 47/47/8
f 43/43/4 42/42/3 47/47/8
f 43/43/4 47/47/8 48/48/9
f 49/49/10 50/50/8 51/51/11
f 49/49/10 51/51/11 52/52/12
f 50/50/8 53/53/13 54/54/14
f 50/50/8 54/54/14 51/51/11
f 51/51/11 54/54/14 55/55/15
f 51/51/11 55/55/15 56/56/16
f 52/52/12 51/51/11 56/56/16
f 52/52/12 56/56/16 57/57/17
f 58/58/18 59/59/16 60/60/19
f 58/58/18 60/60/19 61/61/20
f 59/59/16 62/62/21 63/63/22
f 59/59/16 63/63/22 60/60/19
f 60/60/19 63/63/22 64/64/23
f 60/60/19 64/64/23 65/65/24
f 61/61/20 60/60/19 65/65/24
f 61/61/20 65/65/24 66/66/25
f 66/66/25 65/65/24 67/67/26
f 66/66/25 67/67/26 68/68/27
f 65/65/24 64/64/23 69/69/28
f 65/65/24 69/69/28 67/67/26
f 67/67/26 69/69/28 44/44/5
f 67/67/26 44/44/5 41/41/2
f 68/68/27 67/67/26 41/41/2
f 68/68/27 41/41/2 40/40/1
f 49/49/10 52/52/12 70/70/29
f 49/49/10 70/70/29 71/71/4
f 52/52/12 57/57/17 72/72/20
f 52/52/12 72/72/20 70/70/29
f 70/70/29 72/72/20 73/73/30
f 70/70/29 73/73/30 74/74/27
f 71/71/4 70/70/29 74/74/27
f 71/71/4 74/74/27 75/75/31
f 55/55/15 54/54/14 76/76/32
f 55/55/15 76/76/32 77/77/22
f 54/54/14 53/53/13 78/78/6
f 54/54/14 78/78/6 76/76/32
f 76/76/32 78/78/6 44/44/5
f 76/76/32 44/44/5 69/69/28
f 77/77/22 76/76/32 69/69/28
f 77/77/22 69/69/28 64/64/23
s 0
f 79/79/33 80/80/33 81/81/33
f 79/79/33 81/81/33 82/82/33
f 83/82/11 84/81/11 85/83/11
f 83/82/11 85/83/11 86/84/11
f 87/85/34 88/86/34 89/87/34
s 1
f 87/85/34 89/87/34 90/88/34
s 0
f 91/88/26 92/87/26 93/80/26
f 91/88/26 93/80/26 94/79/26
f 95/86/35 96/89/35 97/90/35
f 95/86/35 97/90/35 98/87/35
f 99/91/26 100/92/26 101/93/26
f 99/91/26 101/93/26 102/94/26
f 103/92/26 104/88/26 105/79/26
f 103/92/26 105/79/26 106/93/26
f 107/95/36 108/96/36 109/92/36
f 107/95/36 109/92/36 110/91/36
f 111/96/37 112/85/37 113/88/37
f 111/96/37 113/88/37 114/92/37
f 115/97/11 116/98/11 117/99/11
f 115/97/11 117/99/11 118/100/11
f 119/98/11 120/82/11 121/84/11
f 119/98/11 121/84/11 122/99/11
f 123/94/38 124/93/38 125/98/38
f 123/94/38 125/98/38 126/97/38
f 127/101/39 128/102/39 129/103/39
f 127/101/39 129/103/39 130/104/39
f 131/105/40 132/104/40 133/103/40
f 131/105/40 133/103/40 134/106/40
f 135/107/11 136/108/11 137/109/11
f 135/107/11 137/109/11 138/110/11
f 139/108/41 140/111/41 141/112/41
f 139/108/41 141/112/41 142/109/41
f 143/111/26 144/101/26 145/104/26
f 143/111/26 145/104/26 146/112/26
f 147/113/42 148/114/42 149/115/42
f 147/113/42 149/115/42 150/116/42
f 151/114/11 152/117/11 153/118/11
f 151/114/11 153/118/11 154/115/11
f 155/119/43 156/120/43 157/121/43
f 155/119/43 157/121/43 158/122/43
f 159/120/26 160/113/26 161/116/26
f 159/120/26 161/116/26 162/121/26
f 163/122/44 164/121/44 165/123/44
f 163/122/44 165/123/44 166/124/44
f 167/125/26 168/126/26 169/127/26
f 167/125/26 169/127/26 170/128/26
f 171/128/26 172/127/26 173/113/26
f 171/128/26 173/113/26 174/120/26
f 175/129/45 176/125/45 177/128/45
f 175/129/45 177/128/45 178/130/45
f 179/130/46 180/128/46 181/120/46
f 179/130/46 181/120/46 182/119/46
f 183/131/11 184/132/11 185/133/11
f 183/131/11 185/133/11 186/134/11
f 187/134/11 188/133/11 189/117/11
f 187/134/11 189/117/11 190/114/11
f 191/126/47 192/131/47 193/134/47
f 191/126/47 193/134/47 194/127/47
f 195/135/48 196/136/48 197/137/48
f 195/135/48 197/137/48 198/138/48
f 199/139/49 200/140/49 201/137/49
f 199/139/49 201/137/49 202/136/49
f 203/138/11 204/137/11 205/141/11
f 203/138/11 205/141/11 206/142/11
f 207/143/50 208/144/50 209/145/50
f 207/143/50 209/145/50 210/146/50
f 211/146/26 212/145/26 213/136/26
f 211/146/26 213/136/26 214/135/26
s 1
f 215/147/51 216/148/52 217/149/53
f 215/147/51 217/149/53 218/150/54
f 219/151/55 220/152/26 221/153/56
f 219/151/55 221/153/56 222/154/57
f 223/155/58 224/156/59 225/157/60
f 223/155/58 225/157/60 226/158/61
f 220/152/26 227/159/62 228/160/63
f 220/152/26 228/160/63 221/153/56
f 229/161/64 230/162/65 231/163/66
f 229/161/64 231/163/66 232/164/67
f 232/164/67 231/163/66 216/148/52
f 232/164/67 216/148/52 215/147/51
f 233/165/68 234/166/69 230/162/65
f 233/165/68 230/162/65 229/161/64
f 235/167/70 236/168/71 227/159/62
f 235/167/70 227/159/62 220/152/26
f 237/169/72 238/170/73 239/171/74
f 237/169/72 239/171/74 240/172/75
f 238/170/73 215/147/51 218/150/54
f 238/170/73 218/150/54 239/171/74
f 241/173/76 242/174/77 238/170/73
f 241/173/76 238/170/73 237/169/72
f 242/174/77 232/164/67 215/147/51
f 242/174/77 215/147/51 238/170/73
f 243/175/78 244/176/79 242/174/77
f 243/175/78 242/174/77 241/173/76
f 244/176/79 229/161/64 232/164/67
f 244/176/79 232/164/67 242/174/77
f 245/177/80 246/178/81 244/176/79
f 245/177/80 244/176/79 243/175/78
f 246/178/81 233/165/68 229/161/64
f 246/178/81 229/161/64 244/176/79
f 247/179/82 248/180/83 249/181/84
f 247/179/82 249/181/84 250/182/80
f 248/180/83 223/155/58 226/158/61
f 248/180/83 226/158/61 249/181/84
f 251/183/85 252/184/86 248/180/83
f 251/183/85 248/180/83 247/179/82
f 252/184/86 253/185/87 223/155/58
f 252/184/86 223/155/58 248/180/83
f 254/186/88 255/187/89 252/184/86
f 254/186/88 252/184/86 251/183/85
f 255/187/89 256/188/90 253/185/87
f 255/187/89 253/185/87 252/184/86
f 240/172/75 239/171/74 255/187/89
f 240/172/75 255/187/89 254/186/88
f 239/171/74 218/150/54 256/188/90
f 239/171/74 256/188/90 255/187/89
f 256/188/90 257/189/91 258/190/92
f 256/188/90 258/190/92 253/185/87
f 253/185/87 258/190/92 224/156/59
f 253/185/87 224/156/59 223/155/58
f 218/150/54 217/149/53 257/189/91
f 218/150/54 257/189/91 256/188/90
f 259/191/93 260/192/53 261/193/94
f 259/191/93 261/193/94 262/194/95
f 262/194/95 261/193/94 235/167/70
f 262/194/95 235/167/70 263/195/96
f 264/196/97 259/191/93 262/194/95
f 264/196/97 262/194/95 265/197/98
f 265/197/98 262/194/95 263/195/96
f 265/197/98 263/195/96 219/151/55
f 266/198/99 264/196/97 265/197/98
f 266/198/99 265/197/98 267/199/100
f 267/199/100 265/197/98 219/151/55
f 267/199/100 219/151/55 222/154/57
f 268/200/101 266/198/99 267/199/100
f 268/200/101 267/199/100 269/201/102
f 269/201/102 267/199/100 222/154/57
f 269/201/102 222/154/57 221/153/56
f 270/202/65 268/200/101 269/201/102
f 270/202/65 269/201/102 271/203/103
f 271/203/103 269/201/102 221/153/56
f 271/203/103 221/153/56 228/160/63
f 272/204/104 270/202/65 271/203/103
f 272/204/104 271/203/103 273/205/105
f 273/205/105 271/203/103 228/160/63
f 273/205/105 228/160/63 227/159/62
f 274/206/106 272/204/104 273/205/105
f 274/206/106 273/205/105 275/207/107
f 275/207/107 273/205/105 227/159/62
f 275/207/107 227/159/62 236/168/71
f 260/192/53 274/206/106 275/207/107
f 260/192/53 275/207/107 261/193/94
f 261/193/94 275/207/107 236/168/71
f 261/193/94 236/168/71 235/167/70
f 263/195/96 235/167/70 220/152/26
f 263/195/96 220/152/26 219/151/55
f 276/208/11 277/209/11 278/210/16
f 276/208/11 278/210/16 279/211/16
f 279/211/16 278/210/16 280/212/19
f 279/211/16 280/212/19 281/213/19
f 281/213/19 280/212/19 282/214/108
f 281/213/19 282/214/108 283/215/108
f 284/216/109 285/217/110 286/218/111
f 284/216/109 286/218/111 287/219/112
f 287/219/112 286/218/111 288/220/2
f 287/219/112 288/220/2 289/221/2
f 289/221/2 288/220/2 290/222/3
f 289/221/2 290/222/3 291/223/3
f 291/223/3 290/222/3 292/224/8
f 291/223/3 292/224/8 293/225/8
f 293/225/8 292/224/8 277/209/11
f 293/225/8 277/209/11 276/208/11
f 285/217/110 284/216/109 294/226/113
f 285/217/110 294/226/113 295/227/114
f 295/227/114 294/226/113 296/228/115
f 295/227/114 296/228/115 297/229/115
f 298/230/26 299/231/2 300/232/2
f 298/230/26 300/232/2 301/233/26
f 299/231/2 302/234/3 303/235/3
f 299/231/2 303/235/3 300/232/2
f 302/234/3 304/236/116 305/237/116
f 302/234/3 305/237/116 303/235/3
f 306/238/117 307/239/118 308/240/119
f 306/238/117 308/240/119 309/241/120
f 307/239/118 310/242/16 311/243/16
f 307/239/118 311/243/16 308/240/119
f 310/242/16 312/244/19 313/245/19
f 310/242/16 313/245/19 311/243/16
f 312/244/19 314/246/24 315/247/24
f 312/244/19 315/247/24 313/245/19
f 314/246/24 298/230/26 301/233/26
f 314/246/24 301/233/26 315/247/24
f 309/241/120 316/248/121 317/249/122
f 309/241/120 317/249/122 306/238/117
f 316/248/121 318/250/123 319/251/123
f 316/248/121 319/251/123 317/249/122
s 0
f 320/222/32 321/220/32 322/243/32
f 320/222/32 322/243/32 323/245/32
s 1
f 324/216/124 325/219/125 326/252/125
f 324/216/124 326/252/125 327/253/126
f 328/218/127 329/217/128 330/241/129
f 328/218/127 330/241/129 331/240/130
f 329/217/128 332/227/131 333/248/132
f 329/217/128 333/248/132 330/241/129
s 0
f 334/211/29 335/213/29 336/254/29
f 334/211/29 336/254/29 337/255/29
f 338/223/29 339/225/29 340/256/29
f 338/223/29 340/256/29 341/257/29
s 1
f 342/226/133 324/216/124 327/253/126
f 342/226/133 327/253/126 343/258/134
s 0
f 344/212/32 345/210/32 346/232/32
f 344/212/32 346/232/32 347/235/32
f 348/224/32 320/222/32 323/245/32
f 348/224/32 323/245/32 349/247/32
s 1
f 325/219/125 350/221/29 351/259/29
f 325/219/125 351/259/29 326/252/125
f 352/260/135 353/228/136 354/261/136
f 352/260/135 354/261/136 355/262/137
f 321/220/32 328/218/127 331/240/130
f 321/220/32 331/240/130 322/243/32
f 332/227/131 356/229/135 357/250/138
f 332/227/131 357/250/138 333/248/132
f 335/213/29 358/215/139 359/263/139
f 335/213/29 359/263/139 336/254/29
s 0
f 339/225/29 360/208/29 361/264/29
f 339/225/29 361/264/29 340/256/29
f 360/208/29 334/211/29 337/255/29
f 360/208/29 337/255/29 361/264/29
s 1
f 362/228/140 342/226/133 343/258/134
f 362/228/140 343/258/134 363/261/140
f 364/214/141 344/212/32 347/235/32
f 364/214/141 347/235/32 365/237/141
s 0
f 366/209/32 348/224/32 349/247/32
f 366/209/32 349/247/32 367/233/32
f 345/210/32 366/209/32 367/233/32
f 345/210/32 367/233/32 346/232/32
f 350/221/29 338/223/29 341/257/29
f 350/221/29 341/257/29 351/259/29
s 1
f 358/215/139 368/265/141 369/266/141
f 358/215/139 369/266/141 359/263/139
