# Blender 5.1.0
# www.blender.org
mtllib cake.mtl
o VisualMaterial0
v 4.289950 7.128075 -3.475643
v 3.050760 7.077255 -1.770795
v 3.953080 5.892545 -3.512468
v 2.849460 8.011002 -2.330798
v 2.971230 5.932807 -4.863266
v 3.661760 8.044320 -3.448342
v 3.050760 7.178884 -5.180493
v 2.971230 5.852292 -2.161671
v 1.535130 8.023677 -2.757650
v 1.045700 7.096667 -2.421990
v 2.849460 8.077563 -4.565857
v 2.486190 8.509372 -3.434461
v 2.486190 8.509372 -3.434461
v 1.382570 5.867670 -2.677631
v 2.486190 8.509372 -3.434461
v 1.535130 8.064866 -4.139011
v 2.486190 8.509372 -3.434461
v 1.045700 7.159472 -4.529293
v 1.382570 5.917429 -4.347307
v 3.050760 7.178884 -5.180493
v 2.971230 5.932807 -4.863266
v 2.849460 8.077563 -4.565857
v 2.486190 8.509372 -3.434461
v -0.513810 6.810467 -2.783026
v 0.532543 5.217299 -1.680344
v -0.513810 5.230216 -2.113565
v 1.039000 6.791306 -2.140117
v -2.066620 6.791306 -2.140117
v -0.513810 8.166702 -2.408439
v -1.830430 8.150406 -1.863308
v 0.965955 5.186131 -0.634458
v -1.560160 5.217299 -1.680344
v -0.513810 9.511284 -1.462676
v -2.375790 8.111198 -0.547272
v -1.190300 9.502960 -1.182588
v 1.682200 6.514288 -0.594874
v 0.802810 8.150406 -1.863308
v -2.709821 6.514288 -0.594874
v -1.993580 5.186131 -0.634458
v -0.513810 9.804624 -0.496805
v 0.162685 9.502960 -1.182588
v 1.348170 8.111198 -0.547272
v -1.470520 9.482796 -0.506395
v 0.442898 9.482796 -0.506395
v -2.066620 6.468025 0.957249
v -1.993580 5.186131 -0.634458
v -1.560160 5.154957 0.411436
v -2.709821 6.514288 -0.594874
v -0.513810 6.448864 1.600159
v -1.830430 8.071979 0.768755
v -0.513810 8.055732 1.313876
v -0.513810 5.142049 0.844650
v -2.375790 8.111198 -0.547272
v 0.802810 8.071979 0.768755
v -1.190300 9.462631 0.169798
v -0.513810 9.454308 0.449886
v 1.039000 6.468025 0.957249
v 0.532543 5.154957 0.411436
v -1.470520 9.482796 -0.506395
v 0.162685 9.462631 0.169798
v -0.513810 9.804624 -0.496805
v 1.682200 6.514288 -0.594874
v 0.965955 5.186131 -0.634458
v 1.348170 8.111198 -0.547272
v 0.442898 9.482796 -0.506395
v 1.545700 6.787264 1.723825
v 3.550760 6.806675 1.072625
v 1.882570 5.545221 1.905811
v 3.349460 7.705405 1.687249
v 1.882570 5.495462 3.575487
v 2.035130 7.692678 2.114102
v 1.545700 6.724459 3.831126
v 3.471230 5.560599 1.389851
v 2.986190 8.137214 2.818648
v 3.471230 5.480083 4.091447
v 2.035130 7.651507 3.495458
v 2.986190 8.137214 2.818648
v 3.550760 6.705048 4.482327
v 4.453080 5.520347 2.740648
v 4.789950 6.755857 2.777476
v 3.471230 5.560599 1.389851
v 3.349460 7.638793 3.922318
v 2.986190 8.137214 2.818648
v 3.550760 6.806675 1.072625
v 4.161760 7.672092 2.804780
v 2.986190 8.137214 2.818648
v 3.349460 7.705405 1.687249
v 2.986190 8.137214 2.818648
v 2.345700 7.168009 -1.448724
v 4.350760 7.187421 -2.099919
v 2.682570 5.925967 -1.266733
v 4.149460 8.086148 -1.485300
v 2.682570 5.876208 0.402943
v 2.835129 8.073424 -1.058442
v 2.345700 7.105205 0.658581
v 4.271230 5.941345 -1.782691
v 3.786190 8.517911 -0.353885
v 4.271230 5.860829 0.918902
v 2.835129 8.032252 0.322914
v 3.786190 8.517911 -0.353885
v 4.350760 7.085793 1.309782
v 5.253080 5.901092 -0.431896
v 5.589950 7.136613 -0.395070
v 4.271230 5.941345 -1.782691
v 4.149460 8.019529 0.749776
v 3.786190 8.517911 -0.353885
v 4.350760 7.187421 -2.099919
v 4.961760 8.052839 -0.367764
v 3.786190 8.517911 -0.353885
v 4.149460 8.086148 -1.485300
v 3.786190 8.517911 -0.353885
v 5.413340 -0.084941 -0.416074
v 4.980530 6.078431 -3.274975
v 5.413340 6.056294 -0.369294
v 4.980530 -0.062802 -3.321749
v 4.980530 6.034159 2.536395
v 4.980530 -0.107076 2.489612
v 3.668590 -0.040677 -6.227437
v 3.668590 -0.129213 5.395292
v 3.668590 6.012032 5.442074
v 3.668590 6.100568 -6.180655
v -7.378610 6.056294 -0.369294
v 5.413340 6.056294 -0.369294
v 4.980530 6.078431 -3.274975
v 4.980530 6.034159 2.536395
v 3.668590 6.100568 -6.180655
v 3.668590 6.012032 5.442074
v -7.378610 -0.084941 -0.416075
v 3.668590 6.100568 -6.180655
v 3.668590 -0.040677 -6.227437
v -7.378610 6.056294 -0.369294
v 3.668590 -0.129213 5.395292
v 3.668590 6.012032 5.442074
vn 0.9838 0.1794 0.0061
vn 0.3079 0.1333 0.9420
vn 0.9654 -0.2607 -0.0110
vn 0.1893 0.7747 0.6033
vn 0.2994 -0.2499 -0.9208
vn 0.6085 0.7932 0.0236
vn 0.3062 0.1911 -0.9326
vn 0.2990 -0.3038 0.9046
vn -0.4970 0.7790 0.3824
vn -0.8019 0.1297 0.5833
vn 0.1894 0.8092 -0.5561
vn -0.0000 0.9995 0.0301
vn -0.7695 -0.3214 0.5519
vn -0.4957 0.8015 -0.3344
vn -0.7999 0.1616 -0.5780
vn -0.7698 -0.2879 -0.5696
vn 0.3062 0.1912 -0.9326
vn 0.2995 -0.2499 -0.9208
vn 0.1894 0.8093 -0.5561
vn -0.0000 -0.0655 -0.9979
vn 0.6238 -0.4089 -0.6661
vn -0.0000 -0.3880 -0.9216
vn 0.7010 -0.0863 -0.7080
vn -0.7010 -0.0863 -0.7080
vn -0.0000 0.4273 -0.9041
vn -0.6532 0.4167 -0.6322
vn 0.8870 -0.4603 -0.0365
vn -0.6238 -0.4089 -0.6661
vn -0.0000 0.8148 -0.5797
vn -0.9203 0.3910 0.0127
vn -0.4251 0.8110 -0.4019
vn 0.9913 -0.1316 -0.0094
vn 0.6532 0.4167 -0.6322
vn -0.9913 -0.1315 -0.0094
vn -0.8870 -0.4603 -0.0365
vn 0.4251 0.8110 -0.4019
vn 0.9203 0.3909 0.0126
vn -0.6048 0.7961 0.0217
vn 0.6048 0.7961 0.0217
vn -0.7000 -0.1674 0.6942
vn -0.8870 -0.4603 -0.0364
vn -0.6207 -0.4938 0.6090
vn -0.9913 -0.1316 -0.0093
vn -0.0000 -0.1710 0.9853
vn -0.6518 0.3666 0.6638
vn -0.0000 0.3580 0.9337
vn -0.0000 -0.5016 0.8651
vn -0.9203 0.3909 0.0127
vn 0.6518 0.3666 0.6638
vn -0.4241 0.7847 0.4521
vn -0.0000 0.7799 0.6260
vn 0.7001 -0.1674 0.6942
vn 0.6206 -0.4938 0.6091
vn -0.6048 0.7961 0.0218
vn 0.4241 0.7847 0.4521
vn -0.0000 0.9995 0.0302
vn 0.9913 -0.1315 -0.0093
vn 0.8870 -0.4603 -0.0364
vn 0.9203 0.3910 0.0127
vn 0.6048 0.7961 0.0218
vn -0.7999 0.1615 -0.5780
vn -0.4957 0.8015 -0.3343
vn -0.4970 0.7789 0.3824
vn 1.0000 -0.0000 -0.0000
vn 0.6748 0.7125 -0.1925
vn 0.7013 0.7129 0.0016
vn 0.9588 0.0056 -0.2840
vn 0.6749 0.7093 0.2034
vn 0.9588 -0.0056 0.2840
vn 0.3220 0.0104 -0.9467
vn 0.3220 -0.0103 0.9467
vn 0.2598 0.5858 0.7677
vn 0.2602 0.5989 -0.7573
vn -0.2286 0.9735 0.0050
vn 0.7013 0.7128 0.0016
vn 0.6748 0.7124 -0.1925
vn 0.6750 0.7093 0.2034
vn 0.2602 0.5989 -0.7574
vn 0.2599 0.5858 0.7676
vn -1.0000 -0.0000 -0.0000
vn 0.2603 0.5989 -0.7574
vn -0.2287 0.9735 0.0050
vn 0.3220 -0.0104 0.9467
vn 0.2598 0.5859 0.7676
vt 0.672087 0.166443
vt 0.636453 0.166482
vt 0.671956 0.233435
vt 0.636220 0.105578
vt 0.702750 0.233431
vt 0.671936 0.105490
vt 0.708269 0.167337
vt 0.637071 0.233435
vt 0.600482 0.105632
vt 0.600612 0.166545
vt 0.704518 0.106659
vt 0.618334 0.038531
vt 0.654082 0.038531
vt 0.600993 0.233435
vt 0.689830 0.038531
vt 0.564702 0.105585
vt 0.582585 0.038531
vt 0.564409 0.166545
vt 0.564178 0.233435
vt 0.528091 0.167230
vt 0.532787 0.233431
vt 0.532136 0.106687
vt 0.546837 0.038531
vt -0.248169 0.290284
vt -0.180681 0.408144
vt -0.248169 0.408144
vt -0.148029 0.290284
vt -0.348308 0.290284
vt -0.248169 0.187007
vt -0.333074 0.187007
vt -0.152727 0.408144
vt -0.315656 0.408144
vt -0.248169 0.083302
vt -0.368229 0.187013
vt -0.291801 0.083302
vt -0.106564 0.307732
vt -0.163263 0.187007
vt -0.389773 0.307732
vt -0.343610 0.408144
vt -0.248169 0.058972
vt -0.204536 0.083302
vt -0.128108 0.187013
vt -0.309874 0.083302
vt -0.186463 0.083302
vt 0.149294 0.312881
vt 0.153947 0.417381
vt 0.181635 0.417381
vt 0.108224 0.312882
vt 0.248479 0.312881
vt 0.164384 0.187244
vt 0.248479 0.187243
vt 0.248479 0.417381
vt 0.129561 0.187248
vt 0.332574 0.187244
vt 0.205263 0.079319
vt 0.248479 0.079319
vt 0.347664 0.312881
vt 0.315323 0.417381
vt 0.187362 0.079319
vt 0.291695 0.079319
vt 0.248479 0.053999
vt 0.388734 0.312882
vt 0.343010 0.417381
vt 0.367397 0.187248
vt 0.309596 0.079319
vt 0.875008 0.480351
vt 0.895842 0.018292
vt 0.875008 0.018292
vt 0.895842 0.480351
vt 0.854175 0.018292
vt 0.854175 0.480351
vt 0.916675 0.480351
vt 0.833342 0.480351
vt 0.833342 0.018292
vt 0.916675 0.018292
vt 0.748373 0.507953
vt 0.748396 0.999916
vt 0.861973 0.982993
vt 0.634817 0.983003
vt 0.975549 0.931708
vt 0.521237 0.931729
vt 0.006207 0.964392
vt 0.490379 0.535608
vt 0.490379 0.964392
vt 0.006207 0.535608
s 1
usemtl Mdl_37_Mtl_m_fg_cake
f 1/1/1 2/2/2 3/3/3
f 1/1/1 4/4/4 2/2/2
f 1/1/1 3/3/3 5/5/5
f 1/1/1 6/6/6 4/4/4
f 1/1/1 7/7/7 6/6/6
f 1/1/1 5/5/5 7/7/7
f 2/2/2 8/8/8 3/3/3
f 2/2/2 4/4/4 9/9/9
f 2/2/2 10/10/10 8/8/8
f 2/2/2 9/9/9 10/10/10
f 7/7/7 11/11/11 6/6/6
f 4/4/4 12/12/12 9/9/9
f 4/4/4 6/6/6 13/13/12
f 8/8/8 10/10/10 14/14/13
f 11/11/11 15/15/12 6/6/6
f 9/9/9 16/16/14 10/10/10
f 9/9/9 17/17/12 16/16/14
f 14/14/13 10/10/10 18/18/15
f 10/10/10 16/16/14 18/18/15
f 14/14/13 18/18/15 19/19/16
f 19/19/16 18/18/15 20/20/17
f 19/19/16 20/20/17 21/21/18
f 22/22/19 20/20/17 18/18/15
f 16/16/14 22/22/19 18/18/15
f 16/16/14 23/23/12 22/22/19
f 24/24/20 25/25/21 26/26/22
f 24/24/20 27/27/23 25/25/21
f 24/24/20 26/26/22 28/28/24
f 24/24/20 29/29/25 27/27/23
f 24/24/20 30/30/26 29/29/25
f 24/24/20 28/28/24 30/30/26
f 25/25/21 27/27/23 31/31/27
f 26/26/22 32/32/28 28/28/24
f 30/30/26 33/33/29 29/29/25
f 30/30/26 28/28/24 34/34/30
f 30/30/26 35/35/31 33/33/29
f 30/30/26 34/34/30 35/35/31
f 27/27/23 36/36/32 31/31/27
f 27/27/23 37/37/33 36/36/32
f 27/27/23 29/29/25 37/37/33
f 38/38/34 34/34/30 28/28/24
f 32/32/28 38/38/34 28/28/24
f 32/32/28 39/39/35 38/38/34
f 33/33/29 35/35/31 40/40/12
f 33/33/29 41/41/36 29/29/25
f 33/33/29 40/40/12 41/41/36
f 29/29/25 41/41/36 37/37/33
f 36/36/32 37/37/33 42/42/37
f 35/35/31 43/43/38 40/40/12
f 34/34/30 43/43/38 35/35/31
f 41/41/36 40/40/12 44/44/39
f 44/44/39 42/42/37 37/37/33
f 41/41/36 44/44/39 37/37/33
f 45/45/40 46/46/41 47/47/42
f 45/45/40 48/48/43 46/46/41
f 45/45/40 47/47/42 49/49/44
f 45/45/40 50/50/45 48/48/43
f 45/45/40 51/51/46 50/50/45
f 45/45/40 49/49/44 51/51/46
f 47/47/42 52/52/47 49/49/44
f 48/48/43 50/50/45 53/53/48
f 51/51/46 49/49/44 54/54/49
f 51/51/46 55/55/50 50/50/45
f 51/51/46 54/54/49 56/56/51
f 51/51/46 56/56/51 55/55/50
f 49/49/44 57/57/52 54/54/49
f 52/52/47 57/57/52 49/49/44
f 52/52/47 58/58/53 57/57/52
f 50/50/45 55/55/50 59/59/54
f 53/53/48 50/50/45 59/59/54
f 56/56/51 54/54/49 60/60/55
f 56/56/51 61/61/56 55/55/50
f 56/56/51 60/60/55 61/61/56
f 55/55/50 61/61/56 59/59/54
f 58/58/53 62/62/57 57/57/52
f 58/58/53 63/63/58 62/62/57
f 54/54/49 64/64/59 60/60/55
f 54/54/49 57/57/52 64/64/59
f 57/57/52 62/62/57 64/64/59
f 65/65/60 60/60/55 64/64/59
f 61/61/56 60/60/55 65/65/60
f 66/18/15 67/20/7 68/19/16
f 66/18/15 69/22/19 67/20/7
f 66/18/15 68/19/16 70/14/13
f 66/18/15 71/16/14 69/22/19
f 66/18/15 72/10/10 71/16/14
f 66/18/15 70/14/13 72/10/10
f 67/20/7 73/21/18 68/19/16
f 69/22/19 71/16/14 74/23/12
f 70/14/13 75/8/8 72/10/10
f 71/16/14 72/10/10 76/9/9
f 71/16/14 76/9/9 77/17/12
f 75/8/8 78/2/2 72/10/10
f 72/10/10 78/2/2 76/9/9
f 75/8/8 79/3/3 78/2/2
f 79/3/3 80/1/1 78/2/2
f 79/3/3 81/5/5 80/1/1
f 76/9/9 78/2/2 82/4/4
f 78/2/2 80/1/1 82/4/4
f 76/9/9 82/4/4 83/12/12
f 81/5/5 84/7/7 80/1/1
f 80/1/1 84/7/7 85/6/6
f 82/4/4 80/1/1 85/6/6
f 82/4/4 85/6/6 86/13/12
f 84/7/7 87/11/11 85/6/6
f 87/11/11 88/15/12 85/6/6
f 89/18/61 90/20/7 91/19/16
f 89/18/61 92/22/19 90/20/7
f 89/18/61 91/19/16 93/14/13
f 89/18/61 94/16/62 92/22/19
f 89/18/61 93/14/13 95/10/10
f 89/18/61 95/10/10 94/16/62
f 90/20/7 96/21/18 91/19/16
f 92/22/19 94/16/62 97/23/12
f 93/14/13 98/8/8 95/10/10
f 94/16/62 95/10/10 99/9/63
f 94/16/62 99/9/63 100/17/12
f 95/10/10 101/2/2 99/9/63
f 98/8/8 101/2/2 95/10/10
f 98/8/8 102/3/3 101/2/2
f 102/3/3 103/1/1 101/2/2
f 102/3/3 104/5/5 103/1/1
f 101/2/2 103/1/1 105/4/4
f 99/9/63 101/2/2 105/4/4
f 99/9/63 105/4/4 106/12/12
f 104/5/5 107/7/7 103/1/1
f 103/1/1 107/7/7 108/6/6
f 105/4/4 103/1/1 108/6/6
f 105/4/4 108/6/6 109/13/12
f 107/7/7 110/11/11 108/6/6
f 110/11/11 111/15/12 108/6/6
f 112/66/64 113/67/65 114/68/66
f 112/66/64 115/69/67 113/67/65
f 112/66/64 114/68/66 116/70/68
f 112/66/64 116/70/68 117/71/69
f 115/69/67 118/72/70 113/67/65
f 116/70/68 119/73/71 117/71/69
f 116/70/68 120/74/72 119/73/71
f 118/72/70 121/75/73 113/67/65
f 122/76/74 123/77/75 124/78/76
f 122/76/74 125/79/77 123/77/75
f 122/76/74 124/78/76 126/80/78
f 122/76/74 127/81/79 125/79/77
f 128/82/80 129/83/81 130/84/70
f 128/82/80 131/85/82 129/83/81
f 128/82/80 132/84/83 131/85/82
f 132/84/83 133/83/84 131/85/82
